<mxfile host="Electron" modified="2025-01-13T10:26:43.262Z" agent="Mozilla/5.0 (Windows NT 10.0; Win64; x64) AppleWebKit/537.36 (KHTML, like Gecko) draw.io/24.4.0 Chrome/120.0.6099.109 Electron/28.1.0 Safari/537.36" etag="JCSNQHwiCEi1JaYeKU3w" version="24.4.0" type="device">
  <diagram name="Page-1" id="w5YIbSZ3tDpKAlkPuJyY">
    <mxGraphModel dx="1343" dy="929" grid="1" gridSize="10" guides="1" tooltips="1" connect="1" arrows="1" fold="1" page="1" pageScale="1" pageWidth="3000" pageHeight="3000" background="#000000" math="0" shadow="0">
      <root>
        <mxCell id="0" />
        <mxCell id="1" parent="0" />
        <mxCell id="HTnMNNAMFDqcmNRor3eO-17" value="BOOK" style="shape=table;startSize=30;container=1;collapsible=0;childLayout=tableLayout;fixedRows=1;rowLines=0;fontStyle=1;fontSize=16;fillColor=#009999;" parent="1" vertex="1">
          <mxGeometry x="1245" y="1295" width="315" height="410" as="geometry" />
        </mxCell>
        <mxCell id="HTnMNNAMFDqcmNRor3eO-18" value="" style="shape=tableRow;horizontal=0;startSize=0;swimlaneHead=0;swimlaneBody=0;top=0;left=0;bottom=0;right=0;collapsible=0;dropTarget=0;fillColor=none;points=[[0,0.5],[1,0.5]];portConstraint=eastwest;strokeColor=inherit;fontSize=16;strokeWidth=3;" parent="HTnMNNAMFDqcmNRor3eO-17" vertex="1">
          <mxGeometry y="30" width="315" height="30" as="geometry" />
        </mxCell>
        <mxCell id="HTnMNNAMFDqcmNRor3eO-19" value="PK" style="shape=partialRectangle;html=1;whiteSpace=wrap;connectable=0;fillColor=none;top=0;left=0;bottom=0;right=0;overflow=hidden;pointerEvents=1;strokeColor=#E6D0DE;fontSize=16;" parent="HTnMNNAMFDqcmNRor3eO-18" vertex="1">
          <mxGeometry width="36" height="30" as="geometry">
            <mxRectangle width="36" height="30" as="alternateBounds" />
          </mxGeometry>
        </mxCell>
        <mxCell id="HTnMNNAMFDqcmNRor3eO-20" value="isbn_code&amp;nbsp; &amp;nbsp; &amp;nbsp; &amp;nbsp; &amp;nbsp; &amp;nbsp; &amp;nbsp;VARCHAR2(30)&amp;nbsp;&amp;nbsp;" style="shape=partialRectangle;html=1;whiteSpace=wrap;connectable=0;fillColor=none;top=0;left=0;bottom=0;right=0;align=left;spacingLeft=6;overflow=hidden;strokeColor=#E6D0DE;fontSize=16;" parent="HTnMNNAMFDqcmNRor3eO-18" vertex="1">
          <mxGeometry x="36" width="279" height="30" as="geometry">
            <mxRectangle width="279" height="30" as="alternateBounds" />
          </mxGeometry>
        </mxCell>
        <mxCell id="HTnMNNAMFDqcmNRor3eO-24" value="" style="shape=tableRow;horizontal=0;startSize=0;swimlaneHead=0;swimlaneBody=0;top=0;left=0;bottom=0;right=0;collapsible=0;dropTarget=0;fillColor=none;points=[[0,0.5],[1,0.5]];portConstraint=eastwest;strokeColor=inherit;fontSize=16;" parent="HTnMNNAMFDqcmNRor3eO-17" vertex="1">
          <mxGeometry y="60" width="315" height="20" as="geometry" />
        </mxCell>
        <mxCell id="HTnMNNAMFDqcmNRor3eO-25" value="" style="shape=partialRectangle;html=1;whiteSpace=wrap;connectable=0;fillColor=none;top=0;left=0;bottom=0;right=0;overflow=hidden;strokeColor=inherit;fontSize=16;" parent="HTnMNNAMFDqcmNRor3eO-24" vertex="1">
          <mxGeometry width="36" height="20" as="geometry">
            <mxRectangle width="36" height="20" as="alternateBounds" />
          </mxGeometry>
        </mxCell>
        <mxCell id="HTnMNNAMFDqcmNRor3eO-26" value="title&amp;nbsp; &amp;nbsp; &amp;nbsp; &amp;nbsp; &amp;nbsp; &amp;nbsp; &amp;nbsp; &amp;nbsp; &amp;nbsp; &amp;nbsp; &amp;nbsp; &amp;nbsp; VARCHAR2(250)&amp;nbsp; &amp;nbsp; &amp;nbsp;" style="shape=partialRectangle;html=1;whiteSpace=wrap;connectable=0;fillColor=none;top=0;left=0;bottom=0;right=0;align=left;spacingLeft=6;overflow=hidden;strokeColor=inherit;fontSize=16;" parent="HTnMNNAMFDqcmNRor3eO-24" vertex="1">
          <mxGeometry x="36" width="279" height="20" as="geometry">
            <mxRectangle width="279" height="20" as="alternateBounds" />
          </mxGeometry>
        </mxCell>
        <mxCell id="HTnMNNAMFDqcmNRor3eO-43" value="" style="shape=tableRow;horizontal=0;startSize=0;swimlaneHead=0;swimlaneBody=0;top=0;left=0;bottom=0;right=0;collapsible=0;dropTarget=0;fillColor=none;points=[[0,0.5],[1,0.5]];portConstraint=eastwest;strokeColor=inherit;fontSize=16;" parent="HTnMNNAMFDqcmNRor3eO-17" vertex="1">
          <mxGeometry y="80" width="315" height="30" as="geometry" />
        </mxCell>
        <mxCell id="HTnMNNAMFDqcmNRor3eO-44" value="" style="shape=partialRectangle;html=1;whiteSpace=wrap;connectable=0;fillColor=none;top=0;left=0;bottom=0;right=0;overflow=hidden;strokeColor=inherit;fontSize=16;" parent="HTnMNNAMFDqcmNRor3eO-43" vertex="1">
          <mxGeometry width="36" height="30" as="geometry">
            <mxRectangle width="36" height="30" as="alternateBounds" />
          </mxGeometry>
        </mxCell>
        <mxCell id="HTnMNNAMFDqcmNRor3eO-45" value="publication_date&amp;nbsp; &amp;nbsp; DATE&amp;nbsp; &amp;nbsp; &amp;nbsp; &amp;nbsp; &amp;nbsp; &amp;nbsp; &amp;nbsp; &amp;nbsp; &amp;nbsp; &amp;nbsp;&amp;nbsp;" style="shape=partialRectangle;html=1;whiteSpace=wrap;connectable=0;fillColor=none;top=0;left=0;bottom=0;right=0;align=left;spacingLeft=6;overflow=hidden;strokeColor=inherit;fontSize=16;" parent="HTnMNNAMFDqcmNRor3eO-43" vertex="1">
          <mxGeometry x="36" width="279" height="30" as="geometry">
            <mxRectangle width="279" height="30" as="alternateBounds" />
          </mxGeometry>
        </mxCell>
        <mxCell id="HTnMNNAMFDqcmNRor3eO-56" value="" style="endArrow=none;html=1;rounded=0;strokeWidth=2;entryX=-0.002;entryY=-0.094;entryDx=0;entryDy=0;entryPerimeter=0;exitX=1.004;exitY=0.929;exitDx=0;exitDy=0;exitPerimeter=0;" parent="HTnMNNAMFDqcmNRor3eO-17" source="HTnMNNAMFDqcmNRor3eO-18" target="HTnMNNAMFDqcmNRor3eO-24" edge="1">
          <mxGeometry width="50" height="50" relative="1" as="geometry">
            <mxPoint x="130" y="240" as="sourcePoint" />
            <mxPoint y="89.57999999999998" as="targetPoint" />
          </mxGeometry>
        </mxCell>
        <mxCell id="HTnMNNAMFDqcmNRor3eO-58" value="" style="shape=tableRow;horizontal=0;startSize=0;swimlaneHead=0;swimlaneBody=0;top=0;left=0;bottom=0;right=0;collapsible=0;dropTarget=0;fillColor=none;points=[[0,0.5],[1,0.5]];portConstraint=eastwest;strokeColor=inherit;fontSize=16;" parent="HTnMNNAMFDqcmNRor3eO-17" vertex="1">
          <mxGeometry y="110" width="315" height="20" as="geometry" />
        </mxCell>
        <mxCell id="HTnMNNAMFDqcmNRor3eO-59" value="" style="shape=partialRectangle;html=1;whiteSpace=wrap;connectable=0;fillColor=none;top=0;left=0;bottom=0;right=0;overflow=hidden;strokeColor=inherit;fontSize=16;" parent="HTnMNNAMFDqcmNRor3eO-58" vertex="1">
          <mxGeometry width="36" height="20" as="geometry">
            <mxRectangle width="36" height="20" as="alternateBounds" />
          </mxGeometry>
        </mxCell>
        <mxCell id="HTnMNNAMFDqcmNRor3eO-60" value="edition&amp;nbsp; &amp;nbsp; &amp;nbsp; &amp;nbsp; &amp;nbsp; &amp;nbsp; &amp;nbsp; &amp;nbsp; &amp;nbsp; &amp;nbsp;varchar2(50)&amp;nbsp; &amp;nbsp; &amp;nbsp; &amp;nbsp; &amp;nbsp; &amp;nbsp;&amp;nbsp;" style="shape=partialRectangle;html=1;whiteSpace=wrap;connectable=0;fillColor=none;top=0;left=0;bottom=0;right=0;align=left;spacingLeft=6;overflow=hidden;strokeColor=inherit;fontSize=16;" parent="HTnMNNAMFDqcmNRor3eO-58" vertex="1">
          <mxGeometry x="36" width="279" height="20" as="geometry">
            <mxRectangle width="279" height="20" as="alternateBounds" />
          </mxGeometry>
        </mxCell>
        <mxCell id="HTnMNNAMFDqcmNRor3eO-61" value="" style="shape=tableRow;horizontal=0;startSize=0;swimlaneHead=0;swimlaneBody=0;top=0;left=0;bottom=0;right=0;collapsible=0;dropTarget=0;fillColor=none;points=[[0,0.5],[1,0.5]];portConstraint=eastwest;strokeColor=inherit;fontSize=16;" parent="HTnMNNAMFDqcmNRor3eO-17" vertex="1">
          <mxGeometry y="130" width="315" height="20" as="geometry" />
        </mxCell>
        <mxCell id="HTnMNNAMFDqcmNRor3eO-62" value="" style="shape=partialRectangle;html=1;whiteSpace=wrap;connectable=0;fillColor=none;top=0;left=0;bottom=0;right=0;overflow=hidden;strokeColor=inherit;fontSize=16;" parent="HTnMNNAMFDqcmNRor3eO-61" vertex="1">
          <mxGeometry width="36" height="20" as="geometry">
            <mxRectangle width="36" height="20" as="alternateBounds" />
          </mxGeometry>
        </mxCell>
        <mxCell id="HTnMNNAMFDqcmNRor3eO-63" value="quantity&amp;nbsp; &amp;nbsp; &amp;nbsp; &amp;nbsp; &amp;nbsp; &amp;nbsp; &amp;nbsp; &amp;nbsp; &amp;nbsp;number(5,0)" style="shape=partialRectangle;html=1;whiteSpace=wrap;connectable=0;fillColor=none;top=0;left=0;bottom=0;right=0;align=left;spacingLeft=6;overflow=hidden;strokeColor=inherit;fontSize=16;" parent="HTnMNNAMFDqcmNRor3eO-61" vertex="1">
          <mxGeometry x="36" width="279" height="20" as="geometry">
            <mxRectangle width="279" height="20" as="alternateBounds" />
          </mxGeometry>
        </mxCell>
        <mxCell id="HTnMNNAMFDqcmNRor3eO-64" value="" style="shape=tableRow;horizontal=0;startSize=0;swimlaneHead=0;swimlaneBody=0;top=0;left=0;bottom=0;right=0;collapsible=0;dropTarget=0;fillColor=none;points=[[0,0.5],[1,0.5]];portConstraint=eastwest;strokeColor=inherit;fontSize=16;" parent="HTnMNNAMFDqcmNRor3eO-17" vertex="1">
          <mxGeometry y="150" width="315" height="20" as="geometry" />
        </mxCell>
        <mxCell id="HTnMNNAMFDqcmNRor3eO-65" value="" style="shape=partialRectangle;html=1;whiteSpace=wrap;connectable=0;fillColor=none;top=0;left=0;bottom=0;right=0;overflow=hidden;strokeColor=inherit;fontSize=16;" parent="HTnMNNAMFDqcmNRor3eO-64" vertex="1">
          <mxGeometry width="36" height="20" as="geometry">
            <mxRectangle width="36" height="20" as="alternateBounds" />
          </mxGeometry>
        </mxCell>
        <mxCell id="HTnMNNAMFDqcmNRor3eO-66" value="price&amp;nbsp; &amp;nbsp; &amp;nbsp; &amp;nbsp; &amp;nbsp; &amp;nbsp; &amp;nbsp; &amp;nbsp; &amp;nbsp; &amp;nbsp; &amp;nbsp; number(7,2)" style="shape=partialRectangle;html=1;whiteSpace=wrap;connectable=0;fillColor=none;top=0;left=0;bottom=0;right=0;align=left;spacingLeft=6;overflow=hidden;strokeColor=inherit;fontSize=16;" parent="HTnMNNAMFDqcmNRor3eO-64" vertex="1">
          <mxGeometry x="36" width="279" height="20" as="geometry">
            <mxRectangle width="279" height="20" as="alternateBounds" />
          </mxGeometry>
        </mxCell>
        <mxCell id="HTnMNNAMFDqcmNRor3eO-67" value="" style="shape=tableRow;horizontal=0;startSize=0;swimlaneHead=0;swimlaneBody=0;top=0;left=0;bottom=0;right=0;collapsible=0;dropTarget=0;fillColor=none;points=[[0,0.5],[1,0.5]];portConstraint=eastwest;strokeColor=inherit;fontSize=16;" parent="HTnMNNAMFDqcmNRor3eO-17" vertex="1">
          <mxGeometry y="170" width="315" height="20" as="geometry" />
        </mxCell>
        <mxCell id="HTnMNNAMFDqcmNRor3eO-68" value="" style="shape=partialRectangle;html=1;whiteSpace=wrap;connectable=0;fillColor=none;top=0;left=0;bottom=0;right=0;overflow=hidden;strokeColor=inherit;fontSize=16;" parent="HTnMNNAMFDqcmNRor3eO-67" vertex="1">
          <mxGeometry width="36" height="20" as="geometry">
            <mxRectangle width="36" height="20" as="alternateBounds" />
          </mxGeometry>
        </mxCell>
        <mxCell id="HTnMNNAMFDqcmNRor3eO-69" value="author&amp;nbsp; &amp;nbsp; &amp;nbsp; &amp;nbsp; &amp;nbsp; &amp;nbsp; &amp;nbsp; &amp;nbsp; &amp;nbsp; &amp;nbsp; varchar2(500)" style="shape=partialRectangle;html=1;whiteSpace=wrap;connectable=0;fillColor=none;top=0;left=0;bottom=0;right=0;align=left;spacingLeft=6;overflow=hidden;strokeColor=inherit;fontSize=16;" parent="HTnMNNAMFDqcmNRor3eO-67" vertex="1">
          <mxGeometry x="36" width="279" height="20" as="geometry">
            <mxRectangle width="279" height="20" as="alternateBounds" />
          </mxGeometry>
        </mxCell>
        <mxCell id="HTnMNNAMFDqcmNRor3eO-70" value="" style="shape=tableRow;horizontal=0;startSize=0;swimlaneHead=0;swimlaneBody=0;top=0;left=0;bottom=0;right=0;collapsible=0;dropTarget=0;fillColor=none;points=[[0,0.5],[1,0.5]];portConstraint=eastwest;strokeColor=inherit;fontSize=16;" parent="HTnMNNAMFDqcmNRor3eO-17" vertex="1">
          <mxGeometry y="190" width="315" height="30" as="geometry" />
        </mxCell>
        <mxCell id="HTnMNNAMFDqcmNRor3eO-71" value="FK" style="shape=partialRectangle;html=1;whiteSpace=wrap;connectable=0;fillColor=none;top=0;left=0;bottom=0;right=0;overflow=hidden;strokeColor=inherit;fontSize=16;" parent="HTnMNNAMFDqcmNRor3eO-70" vertex="1">
          <mxGeometry width="36" height="30" as="geometry">
            <mxRectangle width="36" height="30" as="alternateBounds" />
          </mxGeometry>
        </mxCell>
        <mxCell id="HTnMNNAMFDqcmNRor3eO-72" value="publisher_id&amp;nbsp; &amp;nbsp; &amp;nbsp; &amp;nbsp; &amp;nbsp; &amp;nbsp;NUMBER(22,0)" style="shape=partialRectangle;html=1;whiteSpace=wrap;connectable=0;fillColor=none;top=0;left=0;bottom=0;right=0;align=left;spacingLeft=6;overflow=hidden;strokeColor=inherit;fontSize=16;" parent="HTnMNNAMFDqcmNRor3eO-70" vertex="1">
          <mxGeometry x="36" width="279" height="30" as="geometry">
            <mxRectangle width="279" height="30" as="alternateBounds" />
          </mxGeometry>
        </mxCell>
        <mxCell id="HTnMNNAMFDqcmNRor3eO-73" value="" style="shape=tableRow;horizontal=0;startSize=0;swimlaneHead=0;swimlaneBody=0;top=0;left=0;bottom=0;right=0;collapsible=0;dropTarget=0;fillColor=none;points=[[0,0.5],[1,0.5]];portConstraint=eastwest;strokeColor=inherit;fontSize=16;" parent="HTnMNNAMFDqcmNRor3eO-17" vertex="1">
          <mxGeometry y="220" width="315" height="20" as="geometry" />
        </mxCell>
        <mxCell id="HTnMNNAMFDqcmNRor3eO-74" value="FK" style="shape=partialRectangle;html=1;whiteSpace=wrap;connectable=0;fillColor=none;top=0;left=0;bottom=0;right=0;overflow=hidden;strokeColor=inherit;fontSize=16;" parent="HTnMNNAMFDqcmNRor3eO-73" vertex="1">
          <mxGeometry width="36" height="20" as="geometry">
            <mxRectangle width="36" height="20" as="alternateBounds" />
          </mxGeometry>
        </mxCell>
        <mxCell id="HTnMNNAMFDqcmNRor3eO-75" value="language_id&amp;nbsp; &amp;nbsp; &amp;nbsp; &amp;nbsp; &amp;nbsp; &amp;nbsp;NUMBER(22,0)" style="shape=partialRectangle;html=1;whiteSpace=wrap;connectable=0;fillColor=none;top=0;left=0;bottom=0;right=0;align=left;spacingLeft=6;overflow=hidden;strokeColor=inherit;fontSize=16;" parent="HTnMNNAMFDqcmNRor3eO-73" vertex="1">
          <mxGeometry x="36" width="279" height="20" as="geometry">
            <mxRectangle width="279" height="20" as="alternateBounds" />
          </mxGeometry>
        </mxCell>
        <mxCell id="HTnMNNAMFDqcmNRor3eO-76" value="" style="shape=tableRow;horizontal=0;startSize=0;swimlaneHead=0;swimlaneBody=0;top=0;left=0;bottom=0;right=0;collapsible=0;dropTarget=0;fillColor=none;points=[[0,0.5],[1,0.5]];portConstraint=eastwest;strokeColor=inherit;fontSize=16;" parent="HTnMNNAMFDqcmNRor3eO-17" vertex="1">
          <mxGeometry y="240" width="315" height="20" as="geometry" />
        </mxCell>
        <mxCell id="HTnMNNAMFDqcmNRor3eO-77" value="" style="shape=partialRectangle;html=1;whiteSpace=wrap;connectable=0;fillColor=none;top=0;left=0;bottom=0;right=0;overflow=hidden;strokeColor=inherit;fontSize=16;" parent="HTnMNNAMFDqcmNRor3eO-76" vertex="1">
          <mxGeometry width="36" height="20" as="geometry">
            <mxRectangle width="36" height="20" as="alternateBounds" />
          </mxGeometry>
        </mxCell>
        <mxCell id="HTnMNNAMFDqcmNRor3eO-78" value="genre&amp;nbsp; &amp;nbsp; &amp;nbsp; &amp;nbsp; &amp;nbsp; &amp;nbsp; &amp;nbsp; &amp;nbsp; &amp;nbsp; &amp;nbsp; &amp;nbsp; varchar2(100)" style="shape=partialRectangle;html=1;whiteSpace=wrap;connectable=0;fillColor=none;top=0;left=0;bottom=0;right=0;align=left;spacingLeft=6;overflow=hidden;strokeColor=inherit;fontSize=16;" parent="HTnMNNAMFDqcmNRor3eO-76" vertex="1">
          <mxGeometry x="36" width="279" height="20" as="geometry">
            <mxRectangle width="279" height="20" as="alternateBounds" />
          </mxGeometry>
        </mxCell>
        <mxCell id="HTnMNNAMFDqcmNRor3eO-79" value="" style="shape=tableRow;horizontal=0;startSize=0;swimlaneHead=0;swimlaneBody=0;top=0;left=0;bottom=0;right=0;collapsible=0;dropTarget=0;fillColor=none;points=[[0,0.5],[1,0.5]];portConstraint=eastwest;strokeColor=inherit;fontSize=16;" parent="HTnMNNAMFDqcmNRor3eO-17" vertex="1">
          <mxGeometry y="260" width="315" height="20" as="geometry" />
        </mxCell>
        <mxCell id="HTnMNNAMFDqcmNRor3eO-80" value="" style="shape=partialRectangle;html=1;whiteSpace=wrap;connectable=0;fillColor=none;top=0;left=0;bottom=0;right=0;overflow=hidden;strokeColor=inherit;fontSize=16;" parent="HTnMNNAMFDqcmNRor3eO-79" vertex="1">
          <mxGeometry width="36" height="20" as="geometry">
            <mxRectangle width="36" height="20" as="alternateBounds" />
          </mxGeometry>
        </mxCell>
        <mxCell id="HTnMNNAMFDqcmNRor3eO-81" value="rating&amp;nbsp; &amp;nbsp; &amp;nbsp; &amp;nbsp; &amp;nbsp; &amp;nbsp; &amp;nbsp; &amp;nbsp; &amp;nbsp; &amp;nbsp; &amp;nbsp; number(3,1)&amp;nbsp; &amp;nbsp; &amp;nbsp;" style="shape=partialRectangle;html=1;whiteSpace=wrap;connectable=0;fillColor=none;top=0;left=0;bottom=0;right=0;align=left;spacingLeft=6;overflow=hidden;strokeColor=inherit;fontSize=16;" parent="HTnMNNAMFDqcmNRor3eO-79" vertex="1">
          <mxGeometry x="36" width="279" height="20" as="geometry">
            <mxRectangle width="279" height="20" as="alternateBounds" />
          </mxGeometry>
        </mxCell>
        <mxCell id="HTnMNNAMFDqcmNRor3eO-85" value="" style="shape=tableRow;horizontal=0;startSize=0;swimlaneHead=0;swimlaneBody=0;top=0;left=0;bottom=0;right=0;collapsible=0;dropTarget=0;fillColor=none;points=[[0,0.5],[1,0.5]];portConstraint=eastwest;strokeColor=inherit;fontSize=16;" parent="HTnMNNAMFDqcmNRor3eO-17" vertex="1">
          <mxGeometry y="280" width="315" height="30" as="geometry" />
        </mxCell>
        <mxCell id="HTnMNNAMFDqcmNRor3eO-86" value="" style="shape=partialRectangle;html=1;whiteSpace=wrap;connectable=0;fillColor=none;top=0;left=0;bottom=0;right=0;overflow=hidden;strokeColor=inherit;fontSize=16;" parent="HTnMNNAMFDqcmNRor3eO-85" vertex="1">
          <mxGeometry width="36" height="30" as="geometry">
            <mxRectangle width="36" height="30" as="alternateBounds" />
          </mxGeometry>
        </mxCell>
        <mxCell id="HTnMNNAMFDqcmNRor3eO-87" value="page_num&amp;nbsp; &amp;nbsp; &amp;nbsp; &amp;nbsp; &amp;nbsp; &amp;nbsp; &amp;nbsp; number(5,0)" style="shape=partialRectangle;html=1;whiteSpace=wrap;connectable=0;fillColor=none;top=0;left=0;bottom=0;right=0;align=left;spacingLeft=6;overflow=hidden;strokeColor=inherit;fontSize=16;" parent="HTnMNNAMFDqcmNRor3eO-85" vertex="1">
          <mxGeometry x="36" width="279" height="30" as="geometry">
            <mxRectangle width="279" height="30" as="alternateBounds" />
          </mxGeometry>
        </mxCell>
        <mxCell id="HTnMNNAMFDqcmNRor3eO-88" value="" style="shape=tableRow;horizontal=0;startSize=0;swimlaneHead=0;swimlaneBody=0;top=0;left=0;bottom=0;right=0;collapsible=0;dropTarget=0;fillColor=none;points=[[0,0.5],[1,0.5]];portConstraint=eastwest;strokeColor=inherit;fontSize=16;" parent="HTnMNNAMFDqcmNRor3eO-17" vertex="1">
          <mxGeometry y="310" width="315" height="30" as="geometry" />
        </mxCell>
        <mxCell id="HTnMNNAMFDqcmNRor3eO-89" value="" style="shape=partialRectangle;html=1;whiteSpace=wrap;connectable=0;fillColor=none;top=0;left=0;bottom=0;right=0;overflow=hidden;strokeColor=inherit;fontSize=16;" parent="HTnMNNAMFDqcmNRor3eO-88" vertex="1">
          <mxGeometry width="36" height="30" as="geometry">
            <mxRectangle width="36" height="30" as="alternateBounds" />
          </mxGeometry>
        </mxCell>
        <mxCell id="HTnMNNAMFDqcmNRor3eO-90" value="update_date&amp;nbsp; &amp;nbsp; &amp;nbsp; &amp;nbsp; &amp;nbsp; &amp;nbsp;timestamp" style="shape=partialRectangle;html=1;whiteSpace=wrap;connectable=0;fillColor=none;top=0;left=0;bottom=0;right=0;align=left;spacingLeft=6;overflow=hidden;strokeColor=inherit;fontSize=16;" parent="HTnMNNAMFDqcmNRor3eO-88" vertex="1">
          <mxGeometry x="36" width="279" height="30" as="geometry">
            <mxRectangle width="279" height="30" as="alternateBounds" />
          </mxGeometry>
        </mxCell>
        <mxCell id="HTnMNNAMFDqcmNRor3eO-91" value="" style="shape=tableRow;horizontal=0;startSize=0;swimlaneHead=0;swimlaneBody=0;top=0;left=0;bottom=0;right=0;collapsible=0;dropTarget=0;fillColor=none;points=[[0,0.5],[1,0.5]];portConstraint=eastwest;strokeColor=inherit;fontSize=16;" parent="HTnMNNAMFDqcmNRor3eO-17" vertex="1">
          <mxGeometry y="340" width="315" height="20" as="geometry" />
        </mxCell>
        <mxCell id="HTnMNNAMFDqcmNRor3eO-92" value="" style="shape=partialRectangle;html=1;whiteSpace=wrap;connectable=0;fillColor=none;top=0;left=0;bottom=0;right=0;overflow=hidden;strokeColor=inherit;fontSize=16;" parent="HTnMNNAMFDqcmNRor3eO-91" vertex="1">
          <mxGeometry width="36" height="20" as="geometry">
            <mxRectangle width="36" height="20" as="alternateBounds" />
          </mxGeometry>
        </mxCell>
        <mxCell id="HTnMNNAMFDqcmNRor3eO-93" value="status&amp;nbsp; &amp;nbsp; &amp;nbsp; &amp;nbsp; &amp;nbsp; &amp;nbsp; &amp;nbsp; &amp;nbsp; &amp;nbsp; &amp;nbsp; &amp;nbsp; varchar2(20)" style="shape=partialRectangle;html=1;whiteSpace=wrap;connectable=0;fillColor=none;top=0;left=0;bottom=0;right=0;align=left;spacingLeft=6;overflow=hidden;strokeColor=inherit;fontSize=16;" parent="HTnMNNAMFDqcmNRor3eO-91" vertex="1">
          <mxGeometry x="36" width="279" height="20" as="geometry">
            <mxRectangle width="279" height="20" as="alternateBounds" />
          </mxGeometry>
        </mxCell>
        <mxCell id="XgE70LmsuouHb_Qgxm-G-1" value="" style="shape=tableRow;horizontal=0;startSize=0;swimlaneHead=0;swimlaneBody=0;top=0;left=0;bottom=0;right=0;collapsible=0;dropTarget=0;fillColor=none;points=[[0,0.5],[1,0.5]];portConstraint=eastwest;strokeColor=inherit;fontSize=16;" parent="HTnMNNAMFDqcmNRor3eO-17" vertex="1">
          <mxGeometry y="360" width="315" height="20" as="geometry" />
        </mxCell>
        <mxCell id="XgE70LmsuouHb_Qgxm-G-2" value="" style="shape=partialRectangle;html=1;whiteSpace=wrap;connectable=0;fillColor=none;top=0;left=0;bottom=0;right=0;overflow=hidden;strokeColor=inherit;fontSize=16;" parent="XgE70LmsuouHb_Qgxm-G-1" vertex="1">
          <mxGeometry width="36" height="20" as="geometry">
            <mxRectangle width="36" height="20" as="alternateBounds" />
          </mxGeometry>
        </mxCell>
        <mxCell id="XgE70LmsuouHb_Qgxm-G-3" value="description&amp;nbsp; &amp;nbsp; &amp;nbsp; &amp;nbsp; &amp;nbsp; &amp;nbsp; &amp;nbsp; varchar2(250)" style="shape=partialRectangle;html=1;whiteSpace=wrap;connectable=0;fillColor=none;top=0;left=0;bottom=0;right=0;align=left;spacingLeft=6;overflow=hidden;strokeColor=inherit;fontSize=16;" parent="XgE70LmsuouHb_Qgxm-G-1" vertex="1">
          <mxGeometry x="36" width="279" height="20" as="geometry">
            <mxRectangle width="279" height="20" as="alternateBounds" />
          </mxGeometry>
        </mxCell>
        <mxCell id="HTnMNNAMFDqcmNRor3eO-57" value="" style="endArrow=none;html=1;rounded=0;strokeWidth=2;entryX=0.512;entryY=0.033;entryDx=0;entryDy=0;entryPerimeter=0;exitX=0.528;exitY=1.211;exitDx=0;exitDy=0;exitPerimeter=0;" parent="HTnMNNAMFDqcmNRor3eO-17" source="XgE70LmsuouHb_Qgxm-G-208" edge="1">
          <mxGeometry width="50" height="50" relative="1" as="geometry">
            <mxPoint x="166.5" y="410" as="sourcePoint" />
            <mxPoint x="165.5999999999999" y="30.99000000000001" as="targetPoint" />
          </mxGeometry>
        </mxCell>
        <mxCell id="XgE70LmsuouHb_Qgxm-G-208" value="" style="shape=tableRow;horizontal=0;startSize=0;swimlaneHead=0;swimlaneBody=0;top=0;left=0;bottom=0;right=0;collapsible=0;dropTarget=0;fillColor=none;points=[[0,0.5],[1,0.5]];portConstraint=eastwest;strokeColor=inherit;fontSize=16;" parent="HTnMNNAMFDqcmNRor3eO-17" vertex="1">
          <mxGeometry y="380" width="315" height="25" as="geometry" />
        </mxCell>
        <mxCell id="XgE70LmsuouHb_Qgxm-G-209" value="" style="shape=partialRectangle;html=1;whiteSpace=wrap;connectable=0;fillColor=none;top=0;left=0;bottom=0;right=0;overflow=hidden;strokeColor=inherit;fontSize=16;" parent="XgE70LmsuouHb_Qgxm-G-208" vertex="1">
          <mxGeometry width="36" height="25" as="geometry">
            <mxRectangle width="36" height="25" as="alternateBounds" />
          </mxGeometry>
        </mxCell>
        <mxCell id="XgE70LmsuouHb_Qgxm-G-210" value="creation_date&amp;nbsp; &amp;nbsp; &amp;nbsp; &amp;nbsp; &amp;nbsp; timestamp" style="shape=partialRectangle;html=1;whiteSpace=wrap;connectable=0;fillColor=none;top=0;left=0;bottom=0;right=0;align=left;spacingLeft=6;overflow=hidden;strokeColor=inherit;fontSize=16;" parent="XgE70LmsuouHb_Qgxm-G-208" vertex="1">
          <mxGeometry x="36" width="279" height="25" as="geometry">
            <mxRectangle width="279" height="25" as="alternateBounds" />
          </mxGeometry>
        </mxCell>
        <mxCell id="XgE70LmsuouHb_Qgxm-G-4" value="AUTHOR" style="shape=table;startSize=30;container=1;collapsible=0;childLayout=tableLayout;fixedRows=1;rowLines=0;fontStyle=1;fontSize=16;fillColor=#0050ef;fontColor=#ffffff;strokeColor=#FFFFFF;" parent="1" vertex="1">
          <mxGeometry x="733" y="1090" width="300" height="340" as="geometry" />
        </mxCell>
        <mxCell id="XgE70LmsuouHb_Qgxm-G-5" value="" style="shape=tableRow;horizontal=0;startSize=0;swimlaneHead=0;swimlaneBody=0;top=0;left=0;bottom=0;right=0;collapsible=0;dropTarget=0;fillColor=none;points=[[0,0.5],[1,0.5]];portConstraint=eastwest;strokeColor=inherit;fontSize=16;strokeWidth=3;" parent="XgE70LmsuouHb_Qgxm-G-4" vertex="1">
          <mxGeometry y="30" width="300" height="30" as="geometry" />
        </mxCell>
        <mxCell id="XgE70LmsuouHb_Qgxm-G-6" value="PK" style="shape=partialRectangle;html=1;whiteSpace=wrap;connectable=0;fillColor=none;top=0;left=0;bottom=0;right=0;overflow=hidden;pointerEvents=1;strokeColor=#E6D0DE;fontSize=16;" parent="XgE70LmsuouHb_Qgxm-G-5" vertex="1">
          <mxGeometry width="34" height="30" as="geometry">
            <mxRectangle width="34" height="30" as="alternateBounds" />
          </mxGeometry>
        </mxCell>
        <mxCell id="XgE70LmsuouHb_Qgxm-G-7" value="author_id&amp;nbsp; &amp;nbsp; &amp;nbsp; &amp;nbsp; &amp;nbsp; &amp;nbsp;varchar2(30)&amp;nbsp; &amp;nbsp; &amp;nbsp;" style="shape=partialRectangle;html=1;whiteSpace=wrap;connectable=0;fillColor=none;top=0;left=0;bottom=0;right=0;align=left;spacingLeft=6;overflow=hidden;strokeColor=#E6D0DE;fontSize=16;" parent="XgE70LmsuouHb_Qgxm-G-5" vertex="1">
          <mxGeometry x="34" width="266" height="30" as="geometry">
            <mxRectangle width="266" height="30" as="alternateBounds" />
          </mxGeometry>
        </mxCell>
        <mxCell id="XgE70LmsuouHb_Qgxm-G-8" value="" style="shape=tableRow;horizontal=0;startSize=0;swimlaneHead=0;swimlaneBody=0;top=0;left=0;bottom=0;right=0;collapsible=0;dropTarget=0;fillColor=none;points=[[0,0.5],[1,0.5]];portConstraint=eastwest;strokeColor=inherit;fontSize=16;" parent="XgE70LmsuouHb_Qgxm-G-4" vertex="1">
          <mxGeometry y="60" width="300" height="30" as="geometry" />
        </mxCell>
        <mxCell id="XgE70LmsuouHb_Qgxm-G-9" value="" style="shape=partialRectangle;html=1;whiteSpace=wrap;connectable=0;fillColor=none;top=0;left=0;bottom=0;right=0;overflow=hidden;strokeColor=inherit;fontSize=16;" parent="XgE70LmsuouHb_Qgxm-G-8" vertex="1">
          <mxGeometry width="34" height="30" as="geometry">
            <mxRectangle width="34" height="30" as="alternateBounds" />
          </mxGeometry>
        </mxCell>
        <mxCell id="XgE70LmsuouHb_Qgxm-G-10" value="first_name&amp;nbsp; &amp;nbsp; &amp;nbsp; &amp;nbsp; &amp;nbsp;varchar2(200)&amp;nbsp;&lt;div&gt;&amp;nbsp;&amp;nbsp; &amp;nbsp;&lt;/div&gt;" style="shape=partialRectangle;html=1;whiteSpace=wrap;connectable=0;fillColor=none;top=0;left=0;bottom=0;right=0;align=left;spacingLeft=6;overflow=hidden;strokeColor=inherit;fontSize=16;" parent="XgE70LmsuouHb_Qgxm-G-8" vertex="1">
          <mxGeometry x="34" width="266" height="30" as="geometry">
            <mxRectangle width="266" height="30" as="alternateBounds" />
          </mxGeometry>
        </mxCell>
        <mxCell id="XgE70LmsuouHb_Qgxm-G-11" value="" style="shape=tableRow;horizontal=0;startSize=0;swimlaneHead=0;swimlaneBody=0;top=0;left=0;bottom=0;right=0;collapsible=0;dropTarget=0;fillColor=none;points=[[0,0.5],[1,0.5]];portConstraint=eastwest;strokeColor=inherit;fontSize=16;" parent="XgE70LmsuouHb_Qgxm-G-4" vertex="1">
          <mxGeometry y="90" width="300" height="30" as="geometry" />
        </mxCell>
        <mxCell id="XgE70LmsuouHb_Qgxm-G-12" value="" style="shape=partialRectangle;html=1;whiteSpace=wrap;connectable=0;fillColor=none;top=0;left=0;bottom=0;right=0;overflow=hidden;strokeColor=inherit;fontSize=16;" parent="XgE70LmsuouHb_Qgxm-G-11" vertex="1">
          <mxGeometry width="34" height="30" as="geometry">
            <mxRectangle width="34" height="30" as="alternateBounds" />
          </mxGeometry>
        </mxCell>
        <mxCell id="XgE70LmsuouHb_Qgxm-G-13" value="last_name&amp;nbsp; &amp;nbsp; &amp;nbsp; &amp;nbsp; &amp;nbsp;varchar2(200)&lt;div&gt;&amp;nbsp; &amp;nbsp; &amp;nbsp; &amp;nbsp; &amp;nbsp; &amp;nbsp; &amp;nbsp; &amp;nbsp; &amp;nbsp; &amp;nbsp;&lt;/div&gt;" style="shape=partialRectangle;html=1;whiteSpace=wrap;connectable=0;fillColor=none;top=0;left=0;bottom=0;right=0;align=left;spacingLeft=6;overflow=hidden;strokeColor=inherit;fontSize=16;" parent="XgE70LmsuouHb_Qgxm-G-11" vertex="1">
          <mxGeometry x="34" width="266" height="30" as="geometry">
            <mxRectangle width="266" height="30" as="alternateBounds" />
          </mxGeometry>
        </mxCell>
        <mxCell id="XgE70LmsuouHb_Qgxm-G-14" value="" style="endArrow=none;html=1;rounded=0;strokeWidth=2;entryX=-0.002;entryY=-0.094;entryDx=0;entryDy=0;entryPerimeter=0;exitX=1.004;exitY=0.929;exitDx=0;exitDy=0;exitPerimeter=0;" parent="XgE70LmsuouHb_Qgxm-G-4" source="XgE70LmsuouHb_Qgxm-G-5" target="XgE70LmsuouHb_Qgxm-G-8" edge="1">
          <mxGeometry width="50" height="50" relative="1" as="geometry">
            <mxPoint x="130" y="240" as="sourcePoint" />
            <mxPoint y="89.57999999999998" as="targetPoint" />
          </mxGeometry>
        </mxCell>
        <mxCell id="XgE70LmsuouHb_Qgxm-G-15" value="" style="shape=tableRow;horizontal=0;startSize=0;swimlaneHead=0;swimlaneBody=0;top=0;left=0;bottom=0;right=0;collapsible=0;dropTarget=0;fillColor=none;points=[[0,0.5],[1,0.5]];portConstraint=eastwest;strokeColor=inherit;fontSize=16;" parent="XgE70LmsuouHb_Qgxm-G-4" vertex="1">
          <mxGeometry y="120" width="300" height="30" as="geometry" />
        </mxCell>
        <mxCell id="XgE70LmsuouHb_Qgxm-G-16" value="" style="shape=partialRectangle;html=1;whiteSpace=wrap;connectable=0;fillColor=none;top=0;left=0;bottom=0;right=0;overflow=hidden;strokeColor=inherit;fontSize=16;" parent="XgE70LmsuouHb_Qgxm-G-15" vertex="1">
          <mxGeometry width="34" height="30" as="geometry">
            <mxRectangle width="34" height="30" as="alternateBounds" />
          </mxGeometry>
        </mxCell>
        <mxCell id="XgE70LmsuouHb_Qgxm-G-17" value="birth_date&amp;nbsp; &amp;nbsp; &amp;nbsp; &amp;nbsp; &amp;nbsp; date&amp;nbsp; &amp;nbsp; &amp;nbsp; &amp;nbsp; &amp;nbsp; &amp;nbsp;&amp;nbsp;" style="shape=partialRectangle;html=1;whiteSpace=wrap;connectable=0;fillColor=none;top=0;left=0;bottom=0;right=0;align=left;spacingLeft=6;overflow=hidden;strokeColor=inherit;fontSize=16;" parent="XgE70LmsuouHb_Qgxm-G-15" vertex="1">
          <mxGeometry x="34" width="266" height="30" as="geometry">
            <mxRectangle width="266" height="30" as="alternateBounds" />
          </mxGeometry>
        </mxCell>
        <mxCell id="XgE70LmsuouHb_Qgxm-G-18" value="" style="shape=tableRow;horizontal=0;startSize=0;swimlaneHead=0;swimlaneBody=0;top=0;left=0;bottom=0;right=0;collapsible=0;dropTarget=0;fillColor=none;points=[[0,0.5],[1,0.5]];portConstraint=eastwest;strokeColor=inherit;fontSize=16;" parent="XgE70LmsuouHb_Qgxm-G-4" vertex="1">
          <mxGeometry y="150" width="300" height="30" as="geometry" />
        </mxCell>
        <mxCell id="XgE70LmsuouHb_Qgxm-G-19" value="" style="shape=partialRectangle;html=1;whiteSpace=wrap;connectable=0;fillColor=none;top=0;left=0;bottom=0;right=0;overflow=hidden;strokeColor=inherit;fontSize=16;" parent="XgE70LmsuouHb_Qgxm-G-18" vertex="1">
          <mxGeometry width="34" height="30" as="geometry">
            <mxRectangle width="34" height="30" as="alternateBounds" />
          </mxGeometry>
        </mxCell>
        <mxCell id="XgE70LmsuouHb_Qgxm-G-20" value="age&amp;nbsp; &amp;nbsp; &amp;nbsp; &amp;nbsp; &amp;nbsp; &amp;nbsp; &amp;nbsp; &amp;nbsp; &amp;nbsp; &amp;nbsp; number(3,0)" style="shape=partialRectangle;html=1;whiteSpace=wrap;connectable=0;fillColor=none;top=0;left=0;bottom=0;right=0;align=left;spacingLeft=6;overflow=hidden;strokeColor=inherit;fontSize=16;" parent="XgE70LmsuouHb_Qgxm-G-18" vertex="1">
          <mxGeometry x="34" width="266" height="30" as="geometry">
            <mxRectangle width="266" height="30" as="alternateBounds" />
          </mxGeometry>
        </mxCell>
        <mxCell id="XgE70LmsuouHb_Qgxm-G-21" value="" style="shape=tableRow;horizontal=0;startSize=0;swimlaneHead=0;swimlaneBody=0;top=0;left=0;bottom=0;right=0;collapsible=0;dropTarget=0;fillColor=none;points=[[0,0.5],[1,0.5]];portConstraint=eastwest;strokeColor=inherit;fontSize=16;" parent="XgE70LmsuouHb_Qgxm-G-4" vertex="1">
          <mxGeometry y="180" width="300" height="30" as="geometry" />
        </mxCell>
        <mxCell id="XgE70LmsuouHb_Qgxm-G-22" value="" style="shape=partialRectangle;html=1;whiteSpace=wrap;connectable=0;fillColor=none;top=0;left=0;bottom=0;right=0;overflow=hidden;strokeColor=inherit;fontSize=16;" parent="XgE70LmsuouHb_Qgxm-G-21" vertex="1">
          <mxGeometry width="34" height="30" as="geometry">
            <mxRectangle width="34" height="30" as="alternateBounds" />
          </mxGeometry>
        </mxCell>
        <mxCell id="XgE70LmsuouHb_Qgxm-G-23" value="death_date&amp;nbsp; &amp;nbsp; &amp;nbsp; &amp;nbsp; date" style="shape=partialRectangle;html=1;whiteSpace=wrap;connectable=0;fillColor=none;top=0;left=0;bottom=0;right=0;align=left;spacingLeft=6;overflow=hidden;strokeColor=inherit;fontSize=16;" parent="XgE70LmsuouHb_Qgxm-G-21" vertex="1">
          <mxGeometry x="34" width="266" height="30" as="geometry">
            <mxRectangle width="266" height="30" as="alternateBounds" />
          </mxGeometry>
        </mxCell>
        <mxCell id="XgE70LmsuouHb_Qgxm-G-24" value="" style="shape=tableRow;horizontal=0;startSize=0;swimlaneHead=0;swimlaneBody=0;top=0;left=0;bottom=0;right=0;collapsible=0;dropTarget=0;fillColor=none;points=[[0,0.5],[1,0.5]];portConstraint=eastwest;strokeColor=inherit;fontSize=16;" parent="XgE70LmsuouHb_Qgxm-G-4" vertex="1">
          <mxGeometry y="210" width="300" height="20" as="geometry" />
        </mxCell>
        <mxCell id="XgE70LmsuouHb_Qgxm-G-25" value="" style="shape=partialRectangle;html=1;whiteSpace=wrap;connectable=0;fillColor=none;top=0;left=0;bottom=0;right=0;overflow=hidden;strokeColor=inherit;fontSize=16;" parent="XgE70LmsuouHb_Qgxm-G-24" vertex="1">
          <mxGeometry width="34" height="20" as="geometry">
            <mxRectangle width="34" height="20" as="alternateBounds" />
          </mxGeometry>
        </mxCell>
        <mxCell id="XgE70LmsuouHb_Qgxm-G-26" value="nationality&amp;nbsp; &amp;nbsp; &amp;nbsp; &amp;nbsp; &amp;nbsp; varchar2(100)" style="shape=partialRectangle;html=1;whiteSpace=wrap;connectable=0;fillColor=none;top=0;left=0;bottom=0;right=0;align=left;spacingLeft=6;overflow=hidden;strokeColor=inherit;fontSize=16;" parent="XgE70LmsuouHb_Qgxm-G-24" vertex="1">
          <mxGeometry x="34" width="266" height="20" as="geometry">
            <mxRectangle width="266" height="20" as="alternateBounds" />
          </mxGeometry>
        </mxCell>
        <mxCell id="XgE70LmsuouHb_Qgxm-G-27" value="" style="shape=tableRow;horizontal=0;startSize=0;swimlaneHead=0;swimlaneBody=0;top=0;left=0;bottom=0;right=0;collapsible=0;dropTarget=0;fillColor=none;points=[[0,0.5],[1,0.5]];portConstraint=eastwest;strokeColor=inherit;fontSize=16;" parent="XgE70LmsuouHb_Qgxm-G-4" vertex="1">
          <mxGeometry y="230" width="300" height="30" as="geometry" />
        </mxCell>
        <mxCell id="XgE70LmsuouHb_Qgxm-G-28" value="" style="shape=partialRectangle;html=1;whiteSpace=wrap;connectable=0;fillColor=none;top=0;left=0;bottom=0;right=0;overflow=hidden;strokeColor=inherit;fontSize=16;" parent="XgE70LmsuouHb_Qgxm-G-27" vertex="1">
          <mxGeometry width="34" height="30" as="geometry">
            <mxRectangle width="34" height="30" as="alternateBounds" />
          </mxGeometry>
        </mxCell>
        <mxCell id="XgE70LmsuouHb_Qgxm-G-29" value="bibliography&amp;nbsp; &amp;nbsp; &amp;nbsp; &amp;nbsp;varchar2(250)" style="shape=partialRectangle;html=1;whiteSpace=wrap;connectable=0;fillColor=none;top=0;left=0;bottom=0;right=0;align=left;spacingLeft=6;overflow=hidden;strokeColor=inherit;fontSize=16;" parent="XgE70LmsuouHb_Qgxm-G-27" vertex="1">
          <mxGeometry x="34" width="266" height="30" as="geometry">
            <mxRectangle width="266" height="30" as="alternateBounds" />
          </mxGeometry>
        </mxCell>
        <mxCell id="XgE70LmsuouHb_Qgxm-G-30" value="" style="shape=tableRow;horizontal=0;startSize=0;swimlaneHead=0;swimlaneBody=0;top=0;left=0;bottom=0;right=0;collapsible=0;dropTarget=0;fillColor=none;points=[[0,0.5],[1,0.5]];portConstraint=eastwest;strokeColor=inherit;fontSize=16;" parent="XgE70LmsuouHb_Qgxm-G-4" vertex="1">
          <mxGeometry y="260" width="300" height="20" as="geometry" />
        </mxCell>
        <mxCell id="XgE70LmsuouHb_Qgxm-G-31" value="" style="shape=partialRectangle;html=1;whiteSpace=wrap;connectable=0;fillColor=none;top=0;left=0;bottom=0;right=0;overflow=hidden;strokeColor=inherit;fontSize=16;" parent="XgE70LmsuouHb_Qgxm-G-30" vertex="1">
          <mxGeometry width="34" height="20" as="geometry">
            <mxRectangle width="34" height="20" as="alternateBounds" />
          </mxGeometry>
        </mxCell>
        <mxCell id="XgE70LmsuouHb_Qgxm-G-32" value="rating&amp;nbsp; &amp;nbsp; &amp;nbsp; &amp;nbsp; &amp;nbsp; &amp;nbsp; &amp;nbsp; &amp;nbsp; number(3,1)" style="shape=partialRectangle;html=1;whiteSpace=wrap;connectable=0;fillColor=none;top=0;left=0;bottom=0;right=0;align=left;spacingLeft=6;overflow=hidden;strokeColor=inherit;fontSize=16;" parent="XgE70LmsuouHb_Qgxm-G-30" vertex="1">
          <mxGeometry x="34" width="266" height="20" as="geometry">
            <mxRectangle width="266" height="20" as="alternateBounds" />
          </mxGeometry>
        </mxCell>
        <mxCell id="XgE70LmsuouHb_Qgxm-G-33" value="" style="shape=tableRow;horizontal=0;startSize=0;swimlaneHead=0;swimlaneBody=0;top=0;left=0;bottom=0;right=0;collapsible=0;dropTarget=0;fillColor=none;points=[[0,0.5],[1,0.5]];portConstraint=eastwest;strokeColor=inherit;fontSize=16;" parent="XgE70LmsuouHb_Qgxm-G-4" vertex="1">
          <mxGeometry y="280" width="300" height="30" as="geometry" />
        </mxCell>
        <mxCell id="XgE70LmsuouHb_Qgxm-G-34" value="" style="shape=partialRectangle;html=1;whiteSpace=wrap;connectable=0;fillColor=none;top=0;left=0;bottom=0;right=0;overflow=hidden;strokeColor=inherit;fontSize=16;" parent="XgE70LmsuouHb_Qgxm-G-33" vertex="1">
          <mxGeometry width="34" height="30" as="geometry">
            <mxRectangle width="34" height="30" as="alternateBounds" />
          </mxGeometry>
        </mxCell>
        <mxCell id="XgE70LmsuouHb_Qgxm-G-35" value="creation_date&amp;nbsp; &amp;nbsp; date&amp;nbsp;&amp;nbsp;" style="shape=partialRectangle;html=1;whiteSpace=wrap;connectable=0;fillColor=none;top=0;left=0;bottom=0;right=0;align=left;spacingLeft=6;overflow=hidden;strokeColor=inherit;fontSize=16;" parent="XgE70LmsuouHb_Qgxm-G-33" vertex="1">
          <mxGeometry x="34" width="266" height="30" as="geometry">
            <mxRectangle width="266" height="30" as="alternateBounds" />
          </mxGeometry>
        </mxCell>
        <mxCell id="XgE70LmsuouHb_Qgxm-G-54" value="" style="endArrow=none;html=1;rounded=0;strokeWidth=2;entryX=0.486;entryY=-0.01;entryDx=0;entryDy=0;entryPerimeter=0;exitX=0.485;exitY=0.986;exitDx=0;exitDy=0;exitPerimeter=0;" parent="XgE70LmsuouHb_Qgxm-G-4" source="XgE70LmsuouHb_Qgxm-G-211" target="XgE70LmsuouHb_Qgxm-G-5" edge="1">
          <mxGeometry width="50" height="50" relative="1" as="geometry">
            <mxPoint x="447.9000000000001" y="389.51" as="sourcePoint" />
            <mxPoint x="447" y="10.5" as="targetPoint" />
          </mxGeometry>
        </mxCell>
        <mxCell id="XgE70LmsuouHb_Qgxm-G-211" value="" style="shape=tableRow;horizontal=0;startSize=0;swimlaneHead=0;swimlaneBody=0;top=0;left=0;bottom=0;right=0;collapsible=0;dropTarget=0;fillColor=none;points=[[0,0.5],[1,0.5]];portConstraint=eastwest;strokeColor=inherit;fontSize=16;" parent="XgE70LmsuouHb_Qgxm-G-4" vertex="1">
          <mxGeometry y="310" width="300" height="30" as="geometry" />
        </mxCell>
        <mxCell id="XgE70LmsuouHb_Qgxm-G-212" value="" style="shape=partialRectangle;html=1;whiteSpace=wrap;connectable=0;fillColor=none;top=0;left=0;bottom=0;right=0;overflow=hidden;strokeColor=inherit;fontSize=16;" parent="XgE70LmsuouHb_Qgxm-G-211" vertex="1">
          <mxGeometry width="34" height="30" as="geometry">
            <mxRectangle width="34" height="30" as="alternateBounds" />
          </mxGeometry>
        </mxCell>
        <mxCell id="XgE70LmsuouHb_Qgxm-G-213" value="update_date&amp;nbsp; &amp;nbsp; &amp;nbsp; date&amp;nbsp;&amp;nbsp;" style="shape=partialRectangle;html=1;whiteSpace=wrap;connectable=0;fillColor=none;top=0;left=0;bottom=0;right=0;align=left;spacingLeft=6;overflow=hidden;strokeColor=inherit;fontSize=16;" parent="XgE70LmsuouHb_Qgxm-G-211" vertex="1">
          <mxGeometry x="34" width="266" height="30" as="geometry">
            <mxRectangle width="266" height="30" as="alternateBounds" />
          </mxGeometry>
        </mxCell>
        <mxCell id="XgE70LmsuouHb_Qgxm-G-55" value="PUBLISHER" style="shape=table;startSize=30;container=1;collapsible=0;childLayout=tableLayout;fixedRows=1;rowLines=0;fontStyle=1;fontSize=16;fillColor=#f0a30a;fontColor=#000000;strokeColor=#FFFFFF;" parent="1" vertex="1">
          <mxGeometry x="1810" y="1120" width="320" height="370" as="geometry" />
        </mxCell>
        <mxCell id="XgE70LmsuouHb_Qgxm-G-56" value="" style="shape=tableRow;horizontal=0;startSize=0;swimlaneHead=0;swimlaneBody=0;top=0;left=0;bottom=0;right=0;collapsible=0;dropTarget=0;fillColor=none;points=[[0,0.5],[1,0.5]];portConstraint=eastwest;strokeColor=inherit;fontSize=16;strokeWidth=3;" parent="XgE70LmsuouHb_Qgxm-G-55" vertex="1">
          <mxGeometry y="30" width="320" height="30" as="geometry" />
        </mxCell>
        <mxCell id="XgE70LmsuouHb_Qgxm-G-57" value="PK" style="shape=partialRectangle;html=1;whiteSpace=wrap;connectable=0;fillColor=none;top=0;left=0;bottom=0;right=0;overflow=hidden;pointerEvents=1;strokeColor=#E6D0DE;fontSize=16;" parent="XgE70LmsuouHb_Qgxm-G-56" vertex="1">
          <mxGeometry width="36" height="30" as="geometry">
            <mxRectangle width="36" height="30" as="alternateBounds" />
          </mxGeometry>
        </mxCell>
        <mxCell id="XgE70LmsuouHb_Qgxm-G-58" value="publisher_id&amp;nbsp; &amp;nbsp; &amp;nbsp; &amp;nbsp; NUMBER(22,0)" style="shape=partialRectangle;html=1;whiteSpace=wrap;connectable=0;fillColor=none;top=0;left=0;bottom=0;right=0;align=left;spacingLeft=6;overflow=hidden;strokeColor=#E6D0DE;fontSize=16;" parent="XgE70LmsuouHb_Qgxm-G-56" vertex="1">
          <mxGeometry x="36" width="284" height="30" as="geometry">
            <mxRectangle width="284" height="30" as="alternateBounds" />
          </mxGeometry>
        </mxCell>
        <mxCell id="XgE70LmsuouHb_Qgxm-G-59" value="" style="shape=tableRow;horizontal=0;startSize=0;swimlaneHead=0;swimlaneBody=0;top=0;left=0;bottom=0;right=0;collapsible=0;dropTarget=0;fillColor=none;points=[[0,0.5],[1,0.5]];portConstraint=eastwest;strokeColor=inherit;fontSize=16;" parent="XgE70LmsuouHb_Qgxm-G-55" vertex="1">
          <mxGeometry y="60" width="320" height="20" as="geometry" />
        </mxCell>
        <mxCell id="XgE70LmsuouHb_Qgxm-G-60" value="" style="shape=partialRectangle;html=1;whiteSpace=wrap;connectable=0;fillColor=none;top=0;left=0;bottom=0;right=0;overflow=hidden;strokeColor=inherit;fontSize=16;" parent="XgE70LmsuouHb_Qgxm-G-59" vertex="1">
          <mxGeometry width="36" height="20" as="geometry">
            <mxRectangle width="36" height="20" as="alternateBounds" />
          </mxGeometry>
        </mxCell>
        <mxCell id="XgE70LmsuouHb_Qgxm-G-61" value="name&amp;nbsp; &amp;nbsp; &amp;nbsp; &amp;nbsp; &amp;nbsp; &amp;nbsp; &amp;nbsp; &amp;nbsp; &amp;nbsp; &amp;nbsp; VARCHAR2(200)&amp;nbsp; &amp;nbsp;&amp;nbsp;" style="shape=partialRectangle;html=1;whiteSpace=wrap;connectable=0;fillColor=none;top=0;left=0;bottom=0;right=0;align=left;spacingLeft=6;overflow=hidden;strokeColor=inherit;fontSize=16;" parent="XgE70LmsuouHb_Qgxm-G-59" vertex="1">
          <mxGeometry x="36" width="284" height="20" as="geometry">
            <mxRectangle width="284" height="20" as="alternateBounds" />
          </mxGeometry>
        </mxCell>
        <mxCell id="XgE70LmsuouHb_Qgxm-G-62" value="" style="shape=tableRow;horizontal=0;startSize=0;swimlaneHead=0;swimlaneBody=0;top=0;left=0;bottom=0;right=0;collapsible=0;dropTarget=0;fillColor=none;points=[[0,0.5],[1,0.5]];portConstraint=eastwest;strokeColor=inherit;fontSize=16;" parent="XgE70LmsuouHb_Qgxm-G-55" vertex="1">
          <mxGeometry y="80" width="320" height="30" as="geometry" />
        </mxCell>
        <mxCell id="XgE70LmsuouHb_Qgxm-G-63" value="" style="shape=partialRectangle;html=1;whiteSpace=wrap;connectable=0;fillColor=none;top=0;left=0;bottom=0;right=0;overflow=hidden;strokeColor=inherit;fontSize=16;" parent="XgE70LmsuouHb_Qgxm-G-62" vertex="1">
          <mxGeometry width="36" height="30" as="geometry">
            <mxRectangle width="36" height="30" as="alternateBounds" />
          </mxGeometry>
        </mxCell>
        <mxCell id="XgE70LmsuouHb_Qgxm-G-64" value="email&amp;nbsp; &amp;nbsp; &amp;nbsp; &amp;nbsp; &amp;nbsp; &amp;nbsp; &amp;nbsp; &amp;nbsp; &amp;nbsp; &amp;nbsp; VARCHAR2(200)" style="shape=partialRectangle;html=1;whiteSpace=wrap;connectable=0;fillColor=none;top=0;left=0;bottom=0;right=0;align=left;spacingLeft=6;overflow=hidden;strokeColor=inherit;fontSize=16;" parent="XgE70LmsuouHb_Qgxm-G-62" vertex="1">
          <mxGeometry x="36" width="284" height="30" as="geometry">
            <mxRectangle width="284" height="30" as="alternateBounds" />
          </mxGeometry>
        </mxCell>
        <mxCell id="XgE70LmsuouHb_Qgxm-G-65" value="" style="endArrow=none;html=1;rounded=0;strokeWidth=2;entryX=-0.002;entryY=-0.094;entryDx=0;entryDy=0;entryPerimeter=0;exitX=1.004;exitY=0.929;exitDx=0;exitDy=0;exitPerimeter=0;" parent="XgE70LmsuouHb_Qgxm-G-55" source="XgE70LmsuouHb_Qgxm-G-56" target="XgE70LmsuouHb_Qgxm-G-59" edge="1">
          <mxGeometry width="50" height="50" relative="1" as="geometry">
            <mxPoint x="130" y="240" as="sourcePoint" />
            <mxPoint y="89.57999999999998" as="targetPoint" />
          </mxGeometry>
        </mxCell>
        <mxCell id="XgE70LmsuouHb_Qgxm-G-66" value="" style="shape=tableRow;horizontal=0;startSize=0;swimlaneHead=0;swimlaneBody=0;top=0;left=0;bottom=0;right=0;collapsible=0;dropTarget=0;fillColor=none;points=[[0,0.5],[1,0.5]];portConstraint=eastwest;strokeColor=inherit;fontSize=16;" parent="XgE70LmsuouHb_Qgxm-G-55" vertex="1">
          <mxGeometry y="110" width="320" height="30" as="geometry" />
        </mxCell>
        <mxCell id="XgE70LmsuouHb_Qgxm-G-67" value="FK" style="shape=partialRectangle;html=1;whiteSpace=wrap;connectable=0;fillColor=none;top=0;left=0;bottom=0;right=0;overflow=hidden;strokeColor=inherit;fontSize=16;" parent="XgE70LmsuouHb_Qgxm-G-66" vertex="1">
          <mxGeometry width="36" height="30" as="geometry">
            <mxRectangle width="36" height="30" as="alternateBounds" />
          </mxGeometry>
        </mxCell>
        <mxCell id="XgE70LmsuouHb_Qgxm-G-68" value="location_id&amp;nbsp; &amp;nbsp; &amp;nbsp; &amp;nbsp; &amp;nbsp; &amp;nbsp; NUMBER(22,0)" style="shape=partialRectangle;html=1;whiteSpace=wrap;connectable=0;fillColor=none;top=0;left=0;bottom=0;right=0;align=left;spacingLeft=6;overflow=hidden;strokeColor=inherit;fontSize=16;" parent="XgE70LmsuouHb_Qgxm-G-66" vertex="1">
          <mxGeometry x="36" width="284" height="30" as="geometry">
            <mxRectangle width="284" height="30" as="alternateBounds" />
          </mxGeometry>
        </mxCell>
        <mxCell id="XgE70LmsuouHb_Qgxm-G-69" value="" style="shape=tableRow;horizontal=0;startSize=0;swimlaneHead=0;swimlaneBody=0;top=0;left=0;bottom=0;right=0;collapsible=0;dropTarget=0;fillColor=none;points=[[0,0.5],[1,0.5]];portConstraint=eastwest;strokeColor=inherit;fontSize=16;" parent="XgE70LmsuouHb_Qgxm-G-55" vertex="1">
          <mxGeometry y="140" width="320" height="20" as="geometry" />
        </mxCell>
        <mxCell id="XgE70LmsuouHb_Qgxm-G-70" value="" style="shape=partialRectangle;html=1;whiteSpace=wrap;connectable=0;fillColor=none;top=0;left=0;bottom=0;right=0;overflow=hidden;strokeColor=inherit;fontSize=16;" parent="XgE70LmsuouHb_Qgxm-G-69" vertex="1">
          <mxGeometry width="36" height="20" as="geometry">
            <mxRectangle width="36" height="20" as="alternateBounds" />
          </mxGeometry>
        </mxCell>
        <mxCell id="XgE70LmsuouHb_Qgxm-G-71" value="phone&amp;nbsp; &amp;nbsp; &amp;nbsp; &amp;nbsp; &amp;nbsp; &amp;nbsp; &amp;nbsp; &amp;nbsp; &amp;nbsp; &amp;nbsp;VARCHAR2(50)" style="shape=partialRectangle;html=1;whiteSpace=wrap;connectable=0;fillColor=none;top=0;left=0;bottom=0;right=0;align=left;spacingLeft=6;overflow=hidden;strokeColor=inherit;fontSize=16;" parent="XgE70LmsuouHb_Qgxm-G-69" vertex="1">
          <mxGeometry x="36" width="284" height="20" as="geometry">
            <mxRectangle width="284" height="20" as="alternateBounds" />
          </mxGeometry>
        </mxCell>
        <mxCell id="XgE70LmsuouHb_Qgxm-G-78" value="" style="shape=tableRow;horizontal=0;startSize=0;swimlaneHead=0;swimlaneBody=0;top=0;left=0;bottom=0;right=0;collapsible=0;dropTarget=0;fillColor=none;points=[[0,0.5],[1,0.5]];portConstraint=eastwest;strokeColor=inherit;fontSize=16;" parent="XgE70LmsuouHb_Qgxm-G-55" vertex="1">
          <mxGeometry y="160" width="320" height="30" as="geometry" />
        </mxCell>
        <mxCell id="XgE70LmsuouHb_Qgxm-G-79" value="" style="shape=partialRectangle;html=1;whiteSpace=wrap;connectable=0;fillColor=none;top=0;left=0;bottom=0;right=0;overflow=hidden;strokeColor=inherit;fontSize=16;" parent="XgE70LmsuouHb_Qgxm-G-78" vertex="1">
          <mxGeometry width="36" height="30" as="geometry">
            <mxRectangle width="36" height="30" as="alternateBounds" />
          </mxGeometry>
        </mxCell>
        <mxCell id="XgE70LmsuouHb_Qgxm-G-80" value="website&amp;nbsp; &amp;nbsp; &amp;nbsp; &amp;nbsp; &amp;nbsp; &amp;nbsp; &amp;nbsp; &amp;nbsp; &amp;nbsp;VARCHAR2(100)" style="shape=partialRectangle;html=1;whiteSpace=wrap;connectable=0;fillColor=none;top=0;left=0;bottom=0;right=0;align=left;spacingLeft=6;overflow=hidden;strokeColor=inherit;fontSize=16;" parent="XgE70LmsuouHb_Qgxm-G-78" vertex="1">
          <mxGeometry x="36" width="284" height="30" as="geometry">
            <mxRectangle width="284" height="30" as="alternateBounds" />
          </mxGeometry>
        </mxCell>
        <mxCell id="XgE70LmsuouHb_Qgxm-G-81" value="" style="shape=tableRow;horizontal=0;startSize=0;swimlaneHead=0;swimlaneBody=0;top=0;left=0;bottom=0;right=0;collapsible=0;dropTarget=0;fillColor=none;points=[[0,0.5],[1,0.5]];portConstraint=eastwest;strokeColor=inherit;fontSize=16;" parent="XgE70LmsuouHb_Qgxm-G-55" vertex="1">
          <mxGeometry y="190" width="320" height="30" as="geometry" />
        </mxCell>
        <mxCell id="XgE70LmsuouHb_Qgxm-G-82" value="" style="shape=partialRectangle;html=1;whiteSpace=wrap;connectable=0;fillColor=none;top=0;left=0;bottom=0;right=0;overflow=hidden;strokeColor=inherit;fontSize=16;" parent="XgE70LmsuouHb_Qgxm-G-81" vertex="1">
          <mxGeometry width="36" height="30" as="geometry">
            <mxRectangle width="36" height="30" as="alternateBounds" />
          </mxGeometry>
        </mxCell>
        <mxCell id="XgE70LmsuouHb_Qgxm-G-83" value="founded_year&amp;nbsp; &amp;nbsp; &amp;nbsp; &amp;nbsp;VARCHAR2(4)" style="shape=partialRectangle;html=1;whiteSpace=wrap;connectable=0;fillColor=none;top=0;left=0;bottom=0;right=0;align=left;spacingLeft=6;overflow=hidden;strokeColor=inherit;fontSize=16;" parent="XgE70LmsuouHb_Qgxm-G-81" vertex="1">
          <mxGeometry x="36" width="284" height="30" as="geometry">
            <mxRectangle width="284" height="30" as="alternateBounds" />
          </mxGeometry>
        </mxCell>
        <mxCell id="XgE70LmsuouHb_Qgxm-G-84" value="" style="shape=tableRow;horizontal=0;startSize=0;swimlaneHead=0;swimlaneBody=0;top=0;left=0;bottom=0;right=0;collapsible=0;dropTarget=0;fillColor=none;points=[[0,0.5],[1,0.5]];portConstraint=eastwest;strokeColor=inherit;fontSize=16;" parent="XgE70LmsuouHb_Qgxm-G-55" vertex="1">
          <mxGeometry y="220" width="320" height="20" as="geometry" />
        </mxCell>
        <mxCell id="XgE70LmsuouHb_Qgxm-G-85" value="" style="shape=partialRectangle;html=1;whiteSpace=wrap;connectable=0;fillColor=none;top=0;left=0;bottom=0;right=0;overflow=hidden;strokeColor=inherit;fontSize=16;" parent="XgE70LmsuouHb_Qgxm-G-84" vertex="1">
          <mxGeometry width="36" height="20" as="geometry">
            <mxRectangle width="36" height="20" as="alternateBounds" />
          </mxGeometry>
        </mxCell>
        <mxCell id="XgE70LmsuouHb_Qgxm-G-86" value="status&amp;nbsp; &amp;nbsp; &amp;nbsp; &amp;nbsp; &amp;nbsp; &amp;nbsp; &amp;nbsp; &amp;nbsp; &amp;nbsp; &amp;nbsp;VARCHAR2(50)" style="shape=partialRectangle;html=1;whiteSpace=wrap;connectable=0;fillColor=none;top=0;left=0;bottom=0;right=0;align=left;spacingLeft=6;overflow=hidden;strokeColor=inherit;fontSize=16;" parent="XgE70LmsuouHb_Qgxm-G-84" vertex="1">
          <mxGeometry x="36" width="284" height="20" as="geometry">
            <mxRectangle width="284" height="20" as="alternateBounds" />
          </mxGeometry>
        </mxCell>
        <mxCell id="XgE70LmsuouHb_Qgxm-G-87" value="" style="shape=tableRow;horizontal=0;startSize=0;swimlaneHead=0;swimlaneBody=0;top=0;left=0;bottom=0;right=0;collapsible=0;dropTarget=0;fillColor=none;points=[[0,0.5],[1,0.5]];portConstraint=eastwest;strokeColor=inherit;fontSize=16;" parent="XgE70LmsuouHb_Qgxm-G-55" vertex="1">
          <mxGeometry y="240" width="320" height="20" as="geometry" />
        </mxCell>
        <mxCell id="XgE70LmsuouHb_Qgxm-G-88" value="" style="shape=partialRectangle;html=1;whiteSpace=wrap;connectable=0;fillColor=none;top=0;left=0;bottom=0;right=0;overflow=hidden;strokeColor=inherit;fontSize=16;" parent="XgE70LmsuouHb_Qgxm-G-87" vertex="1">
          <mxGeometry width="36" height="20" as="geometry">
            <mxRectangle width="36" height="20" as="alternateBounds" />
          </mxGeometry>
        </mxCell>
        <mxCell id="XgE70LmsuouHb_Qgxm-G-89" value="notes&amp;nbsp; &amp;nbsp; &amp;nbsp; &amp;nbsp; &amp;nbsp; &amp;nbsp; &amp;nbsp; &amp;nbsp; &amp;nbsp; &amp;nbsp; VARCHAR2(200)&amp;nbsp;" style="shape=partialRectangle;html=1;whiteSpace=wrap;connectable=0;fillColor=none;top=0;left=0;bottom=0;right=0;align=left;spacingLeft=6;overflow=hidden;strokeColor=inherit;fontSize=16;" parent="XgE70LmsuouHb_Qgxm-G-87" vertex="1">
          <mxGeometry x="36" width="284" height="20" as="geometry">
            <mxRectangle width="284" height="20" as="alternateBounds" />
          </mxGeometry>
        </mxCell>
        <mxCell id="XgE70LmsuouHb_Qgxm-G-90" value="" style="shape=tableRow;horizontal=0;startSize=0;swimlaneHead=0;swimlaneBody=0;top=0;left=0;bottom=0;right=0;collapsible=0;dropTarget=0;fillColor=none;points=[[0,0.5],[1,0.5]];portConstraint=eastwest;strokeColor=inherit;fontSize=16;" parent="XgE70LmsuouHb_Qgxm-G-55" vertex="1">
          <mxGeometry y="260" width="320" height="30" as="geometry" />
        </mxCell>
        <mxCell id="XgE70LmsuouHb_Qgxm-G-91" value="" style="shape=partialRectangle;html=1;whiteSpace=wrap;connectable=0;fillColor=none;top=0;left=0;bottom=0;right=0;overflow=hidden;strokeColor=inherit;fontSize=16;" parent="XgE70LmsuouHb_Qgxm-G-90" vertex="1">
          <mxGeometry width="36" height="30" as="geometry">
            <mxRectangle width="36" height="30" as="alternateBounds" />
          </mxGeometry>
        </mxCell>
        <mxCell id="XgE70LmsuouHb_Qgxm-G-92" value="creation_date&amp;nbsp; &amp;nbsp; &amp;nbsp; &amp;nbsp;TIMESTAMP&amp;nbsp;&amp;nbsp;" style="shape=partialRectangle;html=1;whiteSpace=wrap;connectable=0;fillColor=none;top=0;left=0;bottom=0;right=0;align=left;spacingLeft=6;overflow=hidden;strokeColor=inherit;fontSize=16;" parent="XgE70LmsuouHb_Qgxm-G-90" vertex="1">
          <mxGeometry x="36" width="284" height="30" as="geometry">
            <mxRectangle width="284" height="30" as="alternateBounds" />
          </mxGeometry>
        </mxCell>
        <mxCell id="XgE70LmsuouHb_Qgxm-G-93" value="" style="shape=tableRow;horizontal=0;startSize=0;swimlaneHead=0;swimlaneBody=0;top=0;left=0;bottom=0;right=0;collapsible=0;dropTarget=0;fillColor=none;points=[[0,0.5],[1,0.5]];portConstraint=eastwest;strokeColor=inherit;fontSize=16;" parent="XgE70LmsuouHb_Qgxm-G-55" vertex="1">
          <mxGeometry y="290" width="320" height="30" as="geometry" />
        </mxCell>
        <mxCell id="XgE70LmsuouHb_Qgxm-G-94" value="" style="shape=partialRectangle;html=1;whiteSpace=wrap;connectable=0;fillColor=none;top=0;left=0;bottom=0;right=0;overflow=hidden;strokeColor=inherit;fontSize=16;" parent="XgE70LmsuouHb_Qgxm-G-93" vertex="1">
          <mxGeometry width="36" height="30" as="geometry">
            <mxRectangle width="36" height="30" as="alternateBounds" />
          </mxGeometry>
        </mxCell>
        <mxCell id="XgE70LmsuouHb_Qgxm-G-95" value="update_date&amp;nbsp; &amp;nbsp; &amp;nbsp; &amp;nbsp; &amp;nbsp;TIMESTAMP" style="shape=partialRectangle;html=1;whiteSpace=wrap;connectable=0;fillColor=none;top=0;left=0;bottom=0;right=0;align=left;spacingLeft=6;overflow=hidden;strokeColor=inherit;fontSize=16;" parent="XgE70LmsuouHb_Qgxm-G-93" vertex="1">
          <mxGeometry x="36" width="284" height="30" as="geometry">
            <mxRectangle width="284" height="30" as="alternateBounds" />
          </mxGeometry>
        </mxCell>
        <mxCell id="XgE70LmsuouHb_Qgxm-G-102" value="" style="shape=tableRow;horizontal=0;startSize=0;swimlaneHead=0;swimlaneBody=0;top=0;left=0;bottom=0;right=0;collapsible=0;dropTarget=0;fillColor=none;points=[[0,0.5],[1,0.5]];portConstraint=eastwest;strokeColor=inherit;fontSize=16;" parent="XgE70LmsuouHb_Qgxm-G-55" vertex="1">
          <mxGeometry y="320" width="320" height="50" as="geometry" />
        </mxCell>
        <mxCell id="XgE70LmsuouHb_Qgxm-G-103" value="" style="shape=partialRectangle;html=1;whiteSpace=wrap;connectable=0;fillColor=none;top=0;left=0;bottom=0;right=0;overflow=hidden;strokeColor=inherit;fontSize=16;" parent="XgE70LmsuouHb_Qgxm-G-102" vertex="1">
          <mxGeometry width="36" height="50" as="geometry">
            <mxRectangle width="36" height="50" as="alternateBounds" />
          </mxGeometry>
        </mxCell>
        <mxCell id="XgE70LmsuouHb_Qgxm-G-104" value="description&amp;nbsp; &amp;nbsp; &amp;nbsp; &amp;nbsp; &amp;nbsp; &amp;nbsp; VARCHAR2(250)" style="shape=partialRectangle;html=1;whiteSpace=wrap;connectable=0;fillColor=none;top=0;left=0;bottom=0;right=0;align=left;spacingLeft=6;overflow=hidden;strokeColor=inherit;fontSize=16;" parent="XgE70LmsuouHb_Qgxm-G-102" vertex="1">
          <mxGeometry x="36" width="284" height="50" as="geometry">
            <mxRectangle width="284" height="50" as="alternateBounds" />
          </mxGeometry>
        </mxCell>
        <mxCell id="XgE70LmsuouHb_Qgxm-G-105" value="" style="endArrow=none;html=1;rounded=0;strokeWidth=2;entryX=0.489;entryY=0.011;entryDx=0;entryDy=0;entryPerimeter=0;exitX=0.489;exitY=1.107;exitDx=0;exitDy=0;exitPerimeter=0;" parent="XgE70LmsuouHb_Qgxm-G-55" edge="1" target="XgE70LmsuouHb_Qgxm-G-56" source="XgE70LmsuouHb_Qgxm-G-102">
          <mxGeometry width="50" height="50" relative="1" as="geometry">
            <mxPoint x="470.9000000000001" y="389.01" as="sourcePoint" />
            <mxPoint x="470" y="10" as="targetPoint" />
          </mxGeometry>
        </mxCell>
        <mxCell id="XgE70LmsuouHb_Qgxm-G-106" value="LANGUAGE" style="shape=table;startSize=30;container=1;collapsible=0;childLayout=tableLayout;fixedRows=1;rowLines=0;fontStyle=1;fontSize=16;fillColor=#a0522d;fontColor=#ffffff;strokeColor=#FFFFFF;" parent="1" vertex="1">
          <mxGeometry x="1790" y="1640" width="330" height="190" as="geometry" />
        </mxCell>
        <mxCell id="XgE70LmsuouHb_Qgxm-G-107" value="" style="shape=tableRow;horizontal=0;startSize=0;swimlaneHead=0;swimlaneBody=0;top=0;left=0;bottom=0;right=0;collapsible=0;dropTarget=0;fillColor=none;points=[[0,0.5],[1,0.5]];portConstraint=eastwest;strokeColor=inherit;fontSize=16;strokeWidth=3;" parent="XgE70LmsuouHb_Qgxm-G-106" vertex="1">
          <mxGeometry y="30" width="330" height="30" as="geometry" />
        </mxCell>
        <mxCell id="XgE70LmsuouHb_Qgxm-G-108" value="PK" style="shape=partialRectangle;html=1;whiteSpace=wrap;connectable=0;fillColor=none;top=0;left=0;bottom=0;right=0;overflow=hidden;pointerEvents=1;strokeColor=#E6D0DE;fontSize=16;" parent="XgE70LmsuouHb_Qgxm-G-107" vertex="1">
          <mxGeometry width="37" height="30" as="geometry">
            <mxRectangle width="37" height="30" as="alternateBounds" />
          </mxGeometry>
        </mxCell>
        <mxCell id="XgE70LmsuouHb_Qgxm-G-109" value="language_id&amp;nbsp; &amp;nbsp; &amp;nbsp; &amp;nbsp; &amp;nbsp; NUMBER(22,0)" style="shape=partialRectangle;html=1;whiteSpace=wrap;connectable=0;fillColor=none;top=0;left=0;bottom=0;right=0;align=left;spacingLeft=6;overflow=hidden;strokeColor=#E6D0DE;fontSize=16;" parent="XgE70LmsuouHb_Qgxm-G-107" vertex="1">
          <mxGeometry x="37" width="293" height="30" as="geometry">
            <mxRectangle width="293" height="30" as="alternateBounds" />
          </mxGeometry>
        </mxCell>
        <mxCell id="XgE70LmsuouHb_Qgxm-G-110" value="" style="shape=tableRow;horizontal=0;startSize=0;swimlaneHead=0;swimlaneBody=0;top=0;left=0;bottom=0;right=0;collapsible=0;dropTarget=0;fillColor=none;points=[[0,0.5],[1,0.5]];portConstraint=eastwest;strokeColor=inherit;fontSize=16;" parent="XgE70LmsuouHb_Qgxm-G-106" vertex="1">
          <mxGeometry y="60" width="330" height="20" as="geometry" />
        </mxCell>
        <mxCell id="XgE70LmsuouHb_Qgxm-G-111" value="" style="shape=partialRectangle;html=1;whiteSpace=wrap;connectable=0;fillColor=none;top=0;left=0;bottom=0;right=0;overflow=hidden;strokeColor=inherit;fontSize=16;" parent="XgE70LmsuouHb_Qgxm-G-110" vertex="1">
          <mxGeometry width="37" height="20" as="geometry">
            <mxRectangle width="37" height="20" as="alternateBounds" />
          </mxGeometry>
        </mxCell>
        <mxCell id="XgE70LmsuouHb_Qgxm-G-112" value="name&amp;nbsp; &amp;nbsp; &amp;nbsp; &amp;nbsp; &amp;nbsp; &amp;nbsp; &amp;nbsp; &amp;nbsp; &amp;nbsp; &amp;nbsp; &amp;nbsp;VARCHAR2(50)" style="shape=partialRectangle;html=1;whiteSpace=wrap;connectable=0;fillColor=none;top=0;left=0;bottom=0;right=0;align=left;spacingLeft=6;overflow=hidden;strokeColor=inherit;fontSize=16;" parent="XgE70LmsuouHb_Qgxm-G-110" vertex="1">
          <mxGeometry x="37" width="293" height="20" as="geometry">
            <mxRectangle width="293" height="20" as="alternateBounds" />
          </mxGeometry>
        </mxCell>
        <mxCell id="XgE70LmsuouHb_Qgxm-G-113" value="" style="shape=tableRow;horizontal=0;startSize=0;swimlaneHead=0;swimlaneBody=0;top=0;left=0;bottom=0;right=0;collapsible=0;dropTarget=0;fillColor=none;points=[[0,0.5],[1,0.5]];portConstraint=eastwest;strokeColor=inherit;fontSize=16;" parent="XgE70LmsuouHb_Qgxm-G-106" vertex="1">
          <mxGeometry y="80" width="330" height="30" as="geometry" />
        </mxCell>
        <mxCell id="XgE70LmsuouHb_Qgxm-G-114" value="" style="shape=partialRectangle;html=1;whiteSpace=wrap;connectable=0;fillColor=none;top=0;left=0;bottom=0;right=0;overflow=hidden;strokeColor=inherit;fontSize=16;" parent="XgE70LmsuouHb_Qgxm-G-113" vertex="1">
          <mxGeometry width="37" height="30" as="geometry">
            <mxRectangle width="37" height="30" as="alternateBounds" />
          </mxGeometry>
        </mxCell>
        <mxCell id="XgE70LmsuouHb_Qgxm-G-115" value="iso_code&amp;nbsp; &amp;nbsp; &amp;nbsp; &amp;nbsp; &amp;nbsp; &amp;nbsp; &amp;nbsp; &amp;nbsp;VARCHAR2(10)&amp;nbsp; &amp;nbsp; &amp;nbsp; &amp;nbsp; &amp;nbsp; &amp;nbsp; &amp;nbsp; &amp;nbsp; &amp;nbsp;&amp;nbsp;" style="shape=partialRectangle;html=1;whiteSpace=wrap;connectable=0;fillColor=none;top=0;left=0;bottom=0;right=0;align=left;spacingLeft=6;overflow=hidden;strokeColor=inherit;fontSize=16;" parent="XgE70LmsuouHb_Qgxm-G-113" vertex="1">
          <mxGeometry x="37" width="293" height="30" as="geometry">
            <mxRectangle width="293" height="30" as="alternateBounds" />
          </mxGeometry>
        </mxCell>
        <mxCell id="XgE70LmsuouHb_Qgxm-G-116" value="" style="endArrow=none;html=1;rounded=0;strokeWidth=2;entryX=-0.002;entryY=-0.094;entryDx=0;entryDy=0;entryPerimeter=0;exitX=1.004;exitY=0.929;exitDx=0;exitDy=0;exitPerimeter=0;" parent="XgE70LmsuouHb_Qgxm-G-106" source="XgE70LmsuouHb_Qgxm-G-107" target="XgE70LmsuouHb_Qgxm-G-110" edge="1">
          <mxGeometry width="50" height="50" relative="1" as="geometry">
            <mxPoint x="130" y="240" as="sourcePoint" />
            <mxPoint y="89.57999999999998" as="targetPoint" />
          </mxGeometry>
        </mxCell>
        <mxCell id="XgE70LmsuouHb_Qgxm-G-117" value="" style="shape=tableRow;horizontal=0;startSize=0;swimlaneHead=0;swimlaneBody=0;top=0;left=0;bottom=0;right=0;collapsible=0;dropTarget=0;fillColor=none;points=[[0,0.5],[1,0.5]];portConstraint=eastwest;strokeColor=inherit;fontSize=16;" parent="XgE70LmsuouHb_Qgxm-G-106" vertex="1">
          <mxGeometry y="110" width="330" height="20" as="geometry" />
        </mxCell>
        <mxCell id="XgE70LmsuouHb_Qgxm-G-118" value="" style="shape=partialRectangle;html=1;whiteSpace=wrap;connectable=0;fillColor=none;top=0;left=0;bottom=0;right=0;overflow=hidden;strokeColor=inherit;fontSize=16;" parent="XgE70LmsuouHb_Qgxm-G-117" vertex="1">
          <mxGeometry width="37" height="20" as="geometry">
            <mxRectangle width="37" height="20" as="alternateBounds" />
          </mxGeometry>
        </mxCell>
        <mxCell id="XgE70LmsuouHb_Qgxm-G-119" value="description&amp;nbsp; &amp;nbsp; &amp;nbsp; &amp;nbsp; &amp;nbsp; &amp;nbsp; VARCHAR2(200)" style="shape=partialRectangle;html=1;whiteSpace=wrap;connectable=0;fillColor=none;top=0;left=0;bottom=0;right=0;align=left;spacingLeft=6;overflow=hidden;strokeColor=inherit;fontSize=16;" parent="XgE70LmsuouHb_Qgxm-G-117" vertex="1">
          <mxGeometry x="37" width="293" height="20" as="geometry">
            <mxRectangle width="293" height="20" as="alternateBounds" />
          </mxGeometry>
        </mxCell>
        <mxCell id="XgE70LmsuouHb_Qgxm-G-132" value="" style="shape=tableRow;horizontal=0;startSize=0;swimlaneHead=0;swimlaneBody=0;top=0;left=0;bottom=0;right=0;collapsible=0;dropTarget=0;fillColor=none;points=[[0,0.5],[1,0.5]];portConstraint=eastwest;strokeColor=inherit;fontSize=16;" parent="XgE70LmsuouHb_Qgxm-G-106" vertex="1">
          <mxGeometry y="130" width="330" height="30" as="geometry" />
        </mxCell>
        <mxCell id="XgE70LmsuouHb_Qgxm-G-133" value="" style="shape=partialRectangle;html=1;whiteSpace=wrap;connectable=0;fillColor=none;top=0;left=0;bottom=0;right=0;overflow=hidden;strokeColor=inherit;fontSize=16;" parent="XgE70LmsuouHb_Qgxm-G-132" vertex="1">
          <mxGeometry width="37" height="30" as="geometry">
            <mxRectangle width="37" height="30" as="alternateBounds" />
          </mxGeometry>
        </mxCell>
        <mxCell id="XgE70LmsuouHb_Qgxm-G-134" value="creation_date&amp;nbsp; &amp;nbsp; &amp;nbsp; &amp;nbsp; TIMESTAMP" style="shape=partialRectangle;html=1;whiteSpace=wrap;connectable=0;fillColor=none;top=0;left=0;bottom=0;right=0;align=left;spacingLeft=6;overflow=hidden;strokeColor=inherit;fontSize=16;" parent="XgE70LmsuouHb_Qgxm-G-132" vertex="1">
          <mxGeometry x="37" width="293" height="30" as="geometry">
            <mxRectangle width="293" height="30" as="alternateBounds" />
          </mxGeometry>
        </mxCell>
        <mxCell id="XgE70LmsuouHb_Qgxm-G-144" value="" style="shape=tableRow;horizontal=0;startSize=0;swimlaneHead=0;swimlaneBody=0;top=0;left=0;bottom=0;right=0;collapsible=0;dropTarget=0;fillColor=none;points=[[0,0.5],[1,0.5]];portConstraint=eastwest;strokeColor=inherit;fontSize=16;" parent="XgE70LmsuouHb_Qgxm-G-106" vertex="1">
          <mxGeometry y="160" width="330" height="30" as="geometry" />
        </mxCell>
        <mxCell id="XgE70LmsuouHb_Qgxm-G-145" value="" style="shape=partialRectangle;html=1;whiteSpace=wrap;connectable=0;fillColor=none;top=0;left=0;bottom=0;right=0;overflow=hidden;strokeColor=inherit;fontSize=16;" parent="XgE70LmsuouHb_Qgxm-G-144" vertex="1">
          <mxGeometry width="37" height="30" as="geometry">
            <mxRectangle width="37" height="30" as="alternateBounds" />
          </mxGeometry>
        </mxCell>
        <mxCell id="XgE70LmsuouHb_Qgxm-G-146" value="update_date&amp;nbsp; &amp;nbsp; &amp;nbsp; &amp;nbsp; &amp;nbsp; TIMESTAMP" style="shape=partialRectangle;html=1;whiteSpace=wrap;connectable=0;fillColor=none;top=0;left=0;bottom=0;right=0;align=left;spacingLeft=6;overflow=hidden;strokeColor=inherit;fontSize=16;" parent="XgE70LmsuouHb_Qgxm-G-144" vertex="1">
          <mxGeometry x="37" width="293" height="30" as="geometry">
            <mxRectangle width="293" height="30" as="alternateBounds" />
          </mxGeometry>
        </mxCell>
        <mxCell id="XgE70LmsuouHb_Qgxm-G-156" value="" style="endArrow=none;html=1;rounded=0;strokeWidth=2;entryX=0.484;entryY=-0.014;entryDx=0;entryDy=0;entryPerimeter=0;exitX=0.484;exitY=1.081;exitDx=0;exitDy=0;exitPerimeter=0;" parent="XgE70LmsuouHb_Qgxm-G-106" edge="1" target="XgE70LmsuouHb_Qgxm-G-107" source="XgE70LmsuouHb_Qgxm-G-144">
          <mxGeometry width="50" height="50" relative="1" as="geometry">
            <mxPoint x="410.9000000000001" y="359.01" as="sourcePoint" />
            <mxPoint x="410" y="-20" as="targetPoint" />
          </mxGeometry>
        </mxCell>
        <mxCell id="XgE70LmsuouHb_Qgxm-G-157" value="GENRE" style="shape=table;startSize=30;container=1;collapsible=0;childLayout=tableLayout;fixedRows=1;rowLines=0;fontStyle=1;fontSize=16;fillColor=#6a00ff;fontColor=#ffffff;strokeColor=#FFFFFF;" parent="1" vertex="1">
          <mxGeometry x="710" y="1610" width="300" height="220" as="geometry" />
        </mxCell>
        <mxCell id="XgE70LmsuouHb_Qgxm-G-158" value="" style="shape=tableRow;horizontal=0;startSize=0;swimlaneHead=0;swimlaneBody=0;top=0;left=0;bottom=0;right=0;collapsible=0;dropTarget=0;fillColor=none;points=[[0,0.5],[1,0.5]];portConstraint=eastwest;strokeColor=inherit;fontSize=16;strokeWidth=3;" parent="XgE70LmsuouHb_Qgxm-G-157" vertex="1">
          <mxGeometry y="30" width="300" height="30" as="geometry" />
        </mxCell>
        <mxCell id="XgE70LmsuouHb_Qgxm-G-159" value="PK" style="shape=partialRectangle;html=1;whiteSpace=wrap;connectable=0;fillColor=none;top=0;left=0;bottom=0;right=0;overflow=hidden;pointerEvents=1;strokeColor=#E6D0DE;fontSize=16;" parent="XgE70LmsuouHb_Qgxm-G-158" vertex="1">
          <mxGeometry width="34" height="30" as="geometry">
            <mxRectangle width="34" height="30" as="alternateBounds" />
          </mxGeometry>
        </mxCell>
        <mxCell id="XgE70LmsuouHb_Qgxm-G-160" value="genre_id&amp;nbsp; &amp;nbsp; &amp;nbsp; &amp;nbsp; &amp;nbsp; &amp;nbsp; &amp;nbsp;VARCHAR2(30)&amp;nbsp; &amp;nbsp; &amp;nbsp;" style="shape=partialRectangle;html=1;whiteSpace=wrap;connectable=0;fillColor=none;top=0;left=0;bottom=0;right=0;align=left;spacingLeft=6;overflow=hidden;strokeColor=#E6D0DE;fontSize=16;" parent="XgE70LmsuouHb_Qgxm-G-158" vertex="1">
          <mxGeometry x="34" width="266" height="30" as="geometry">
            <mxRectangle width="266" height="30" as="alternateBounds" />
          </mxGeometry>
        </mxCell>
        <mxCell id="XgE70LmsuouHb_Qgxm-G-161" value="" style="shape=tableRow;horizontal=0;startSize=0;swimlaneHead=0;swimlaneBody=0;top=0;left=0;bottom=0;right=0;collapsible=0;dropTarget=0;fillColor=none;points=[[0,0.5],[1,0.5]];portConstraint=eastwest;strokeColor=inherit;fontSize=16;" parent="XgE70LmsuouHb_Qgxm-G-157" vertex="1">
          <mxGeometry y="60" width="300" height="20" as="geometry" />
        </mxCell>
        <mxCell id="XgE70LmsuouHb_Qgxm-G-162" value="" style="shape=partialRectangle;html=1;whiteSpace=wrap;connectable=0;fillColor=none;top=0;left=0;bottom=0;right=0;overflow=hidden;strokeColor=inherit;fontSize=16;" parent="XgE70LmsuouHb_Qgxm-G-161" vertex="1">
          <mxGeometry width="34" height="20" as="geometry">
            <mxRectangle width="34" height="20" as="alternateBounds" />
          </mxGeometry>
        </mxCell>
        <mxCell id="XgE70LmsuouHb_Qgxm-G-163" value="name&amp;nbsp; &amp;nbsp; &amp;nbsp; &amp;nbsp; &amp;nbsp; &amp;nbsp; &amp;nbsp; &amp;nbsp; &amp;nbsp; &amp;nbsp; varchar2(100)&lt;span style=&quot;background-color: initial;&quot;&gt;&amp;nbsp; &amp;nbsp; &amp;nbsp;&lt;/span&gt;" style="shape=partialRectangle;html=1;whiteSpace=wrap;connectable=0;fillColor=none;top=0;left=0;bottom=0;right=0;align=left;spacingLeft=6;overflow=hidden;strokeColor=inherit;fontSize=16;" parent="XgE70LmsuouHb_Qgxm-G-161" vertex="1">
          <mxGeometry x="34" width="266" height="20" as="geometry">
            <mxRectangle width="266" height="20" as="alternateBounds" />
          </mxGeometry>
        </mxCell>
        <mxCell id="XgE70LmsuouHb_Qgxm-G-164" value="" style="shape=tableRow;horizontal=0;startSize=0;swimlaneHead=0;swimlaneBody=0;top=0;left=0;bottom=0;right=0;collapsible=0;dropTarget=0;fillColor=none;points=[[0,0.5],[1,0.5]];portConstraint=eastwest;strokeColor=inherit;fontSize=16;" parent="XgE70LmsuouHb_Qgxm-G-157" vertex="1">
          <mxGeometry y="80" width="300" height="30" as="geometry" />
        </mxCell>
        <mxCell id="XgE70LmsuouHb_Qgxm-G-165" value="" style="shape=partialRectangle;html=1;whiteSpace=wrap;connectable=0;fillColor=none;top=0;left=0;bottom=0;right=0;overflow=hidden;strokeColor=inherit;fontSize=16;" parent="XgE70LmsuouHb_Qgxm-G-164" vertex="1">
          <mxGeometry width="34" height="30" as="geometry">
            <mxRectangle width="34" height="30" as="alternateBounds" />
          </mxGeometry>
        </mxCell>
        <mxCell id="XgE70LmsuouHb_Qgxm-G-166" value="description&amp;nbsp; &amp;nbsp; &amp;nbsp; &amp;nbsp; &amp;nbsp; &amp;nbsp; varchar2(300)" style="shape=partialRectangle;html=1;whiteSpace=wrap;connectable=0;fillColor=none;top=0;left=0;bottom=0;right=0;align=left;spacingLeft=6;overflow=hidden;strokeColor=inherit;fontSize=16;" parent="XgE70LmsuouHb_Qgxm-G-164" vertex="1">
          <mxGeometry x="34" width="266" height="30" as="geometry">
            <mxRectangle width="266" height="30" as="alternateBounds" />
          </mxGeometry>
        </mxCell>
        <mxCell id="XgE70LmsuouHb_Qgxm-G-167" value="" style="endArrow=none;html=1;rounded=0;strokeWidth=2;entryX=-0.002;entryY=-0.094;entryDx=0;entryDy=0;entryPerimeter=0;exitX=1.004;exitY=0.929;exitDx=0;exitDy=0;exitPerimeter=0;" parent="XgE70LmsuouHb_Qgxm-G-157" source="XgE70LmsuouHb_Qgxm-G-158" target="XgE70LmsuouHb_Qgxm-G-161" edge="1">
          <mxGeometry width="50" height="50" relative="1" as="geometry">
            <mxPoint x="130" y="240" as="sourcePoint" />
            <mxPoint y="89.57999999999998" as="targetPoint" />
          </mxGeometry>
        </mxCell>
        <mxCell id="XgE70LmsuouHb_Qgxm-G-168" value="" style="shape=tableRow;horizontal=0;startSize=0;swimlaneHead=0;swimlaneBody=0;top=0;left=0;bottom=0;right=0;collapsible=0;dropTarget=0;fillColor=none;points=[[0,0.5],[1,0.5]];portConstraint=eastwest;strokeColor=inherit;fontSize=16;" parent="XgE70LmsuouHb_Qgxm-G-157" vertex="1">
          <mxGeometry y="110" width="300" height="30" as="geometry" />
        </mxCell>
        <mxCell id="XgE70LmsuouHb_Qgxm-G-169" value="" style="shape=partialRectangle;html=1;whiteSpace=wrap;connectable=0;fillColor=none;top=0;left=0;bottom=0;right=0;overflow=hidden;strokeColor=inherit;fontSize=16;" parent="XgE70LmsuouHb_Qgxm-G-168" vertex="1">
          <mxGeometry width="34" height="30" as="geometry">
            <mxRectangle width="34" height="30" as="alternateBounds" />
          </mxGeometry>
        </mxCell>
        <mxCell id="XgE70LmsuouHb_Qgxm-G-170" value="creation_date&amp;nbsp; &amp;nbsp; &amp;nbsp; &amp;nbsp; date" style="shape=partialRectangle;html=1;whiteSpace=wrap;connectable=0;fillColor=none;top=0;left=0;bottom=0;right=0;align=left;spacingLeft=6;overflow=hidden;strokeColor=inherit;fontSize=16;" parent="XgE70LmsuouHb_Qgxm-G-168" vertex="1">
          <mxGeometry x="34" width="266" height="30" as="geometry">
            <mxRectangle width="266" height="30" as="alternateBounds" />
          </mxGeometry>
        </mxCell>
        <mxCell id="XgE70LmsuouHb_Qgxm-G-171" value="" style="shape=tableRow;horizontal=0;startSize=0;swimlaneHead=0;swimlaneBody=0;top=0;left=0;bottom=0;right=0;collapsible=0;dropTarget=0;fillColor=none;points=[[0,0.5],[1,0.5]];portConstraint=eastwest;strokeColor=inherit;fontSize=16;" parent="XgE70LmsuouHb_Qgxm-G-157" vertex="1">
          <mxGeometry y="140" width="300" height="30" as="geometry" />
        </mxCell>
        <mxCell id="XgE70LmsuouHb_Qgxm-G-172" value="" style="shape=partialRectangle;html=1;whiteSpace=wrap;connectable=0;fillColor=none;top=0;left=0;bottom=0;right=0;overflow=hidden;strokeColor=inherit;fontSize=16;" parent="XgE70LmsuouHb_Qgxm-G-171" vertex="1">
          <mxGeometry width="34" height="30" as="geometry">
            <mxRectangle width="34" height="30" as="alternateBounds" />
          </mxGeometry>
        </mxCell>
        <mxCell id="XgE70LmsuouHb_Qgxm-G-173" value="update_date&amp;nbsp; &amp;nbsp; &amp;nbsp; &amp;nbsp; &amp;nbsp; date" style="shape=partialRectangle;html=1;whiteSpace=wrap;connectable=0;fillColor=none;top=0;left=0;bottom=0;right=0;align=left;spacingLeft=6;overflow=hidden;strokeColor=inherit;fontSize=16;" parent="XgE70LmsuouHb_Qgxm-G-171" vertex="1">
          <mxGeometry x="34" width="266" height="30" as="geometry">
            <mxRectangle width="266" height="30" as="alternateBounds" />
          </mxGeometry>
        </mxCell>
        <mxCell id="XgE70LmsuouHb_Qgxm-G-174" value="" style="shape=tableRow;horizontal=0;startSize=0;swimlaneHead=0;swimlaneBody=0;top=0;left=0;bottom=0;right=0;collapsible=0;dropTarget=0;fillColor=none;points=[[0,0.5],[1,0.5]];portConstraint=eastwest;strokeColor=inherit;fontSize=16;" parent="XgE70LmsuouHb_Qgxm-G-157" vertex="1">
          <mxGeometry y="170" width="300" height="20" as="geometry" />
        </mxCell>
        <mxCell id="XgE70LmsuouHb_Qgxm-G-175" value="" style="shape=partialRectangle;html=1;whiteSpace=wrap;connectable=0;fillColor=none;top=0;left=0;bottom=0;right=0;overflow=hidden;strokeColor=inherit;fontSize=16;" parent="XgE70LmsuouHb_Qgxm-G-174" vertex="1">
          <mxGeometry width="34" height="20" as="geometry">
            <mxRectangle width="34" height="20" as="alternateBounds" />
          </mxGeometry>
        </mxCell>
        <mxCell id="XgE70LmsuouHb_Qgxm-G-176" value="rating&amp;nbsp; &amp;nbsp; &amp;nbsp; &amp;nbsp; &amp;nbsp; &amp;nbsp; &amp;nbsp; &amp;nbsp; &amp;nbsp; &amp;nbsp; &amp;nbsp;number(3,1)" style="shape=partialRectangle;html=1;whiteSpace=wrap;connectable=0;fillColor=none;top=0;left=0;bottom=0;right=0;align=left;spacingLeft=6;overflow=hidden;strokeColor=inherit;fontSize=16;" parent="XgE70LmsuouHb_Qgxm-G-174" vertex="1">
          <mxGeometry x="34" width="266" height="20" as="geometry">
            <mxRectangle width="266" height="20" as="alternateBounds" />
          </mxGeometry>
        </mxCell>
        <mxCell id="XgE70LmsuouHb_Qgxm-G-201" value="" style="shape=tableRow;horizontal=0;startSize=0;swimlaneHead=0;swimlaneBody=0;top=0;left=0;bottom=0;right=0;collapsible=0;dropTarget=0;fillColor=none;points=[[0,0.5],[1,0.5]];portConstraint=eastwest;strokeColor=inherit;fontSize=16;" parent="XgE70LmsuouHb_Qgxm-G-157" vertex="1">
          <mxGeometry y="190" width="300" height="30" as="geometry" />
        </mxCell>
        <mxCell id="XgE70LmsuouHb_Qgxm-G-202" value="" style="shape=partialRectangle;html=1;whiteSpace=wrap;connectable=0;fillColor=none;top=0;left=0;bottom=0;right=0;overflow=hidden;strokeColor=inherit;fontSize=16;" parent="XgE70LmsuouHb_Qgxm-G-201" vertex="1">
          <mxGeometry width="34" height="30" as="geometry">
            <mxRectangle width="34" height="30" as="alternateBounds" />
          </mxGeometry>
        </mxCell>
        <mxCell id="XgE70LmsuouHb_Qgxm-G-203" value="origin_date&amp;nbsp; &amp;nbsp; &amp;nbsp; &amp;nbsp; &amp;nbsp; &amp;nbsp; date&amp;nbsp;" style="shape=partialRectangle;html=1;whiteSpace=wrap;connectable=0;fillColor=none;top=0;left=0;bottom=0;right=0;align=left;spacingLeft=6;overflow=hidden;strokeColor=inherit;fontSize=16;" parent="XgE70LmsuouHb_Qgxm-G-201" vertex="1">
          <mxGeometry x="34" width="266" height="30" as="geometry">
            <mxRectangle width="266" height="30" as="alternateBounds" />
          </mxGeometry>
        </mxCell>
        <mxCell id="XgE70LmsuouHb_Qgxm-G-207" value="" style="endArrow=none;html=1;rounded=0;strokeWidth=2;entryX=0.514;entryY=-0.062;entryDx=0;entryDy=0;entryPerimeter=0;exitX=0.504;exitY=0.979;exitDx=0;exitDy=0;exitPerimeter=0;" parent="XgE70LmsuouHb_Qgxm-G-157" source="XgE70LmsuouHb_Qgxm-G-201" target="XgE70LmsuouHb_Qgxm-G-158" edge="1">
          <mxGeometry width="50" height="50" relative="1" as="geometry">
            <mxPoint x="190" y="250" as="sourcePoint" />
            <mxPoint x="165.5999999999999" y="30.99000000000001" as="targetPoint" />
          </mxGeometry>
        </mxCell>
        <mxCell id="K2IEWOI--zp7ypRuiyLS-1" value="" style="edgeStyle=orthogonalEdgeStyle;fontSize=12;html=1;endArrow=ERmany;startArrow=ERoneToMany;rounded=0;exitX=1;exitY=0.5;exitDx=0;exitDy=0;entryX=-0.003;entryY=0.01;entryDx=0;entryDy=0;jumpStyle=none;strokeWidth=5;endSize=22;startSize=22;targetPerimeterSpacing=5;sourcePerimeterSpacing=5;endFill=0;startFill=0;entryPerimeter=0;elbow=vertical;curved=1;" parent="1" source="XgE70LmsuouHb_Qgxm-G-8" target="HTnMNNAMFDqcmNRor3eO-43" edge="1">
          <mxGeometry width="100" height="100" relative="1" as="geometry">
            <mxPoint x="1140" y="1500" as="sourcePoint" />
            <mxPoint x="1240" y="1400" as="targetPoint" />
            <Array as="points">
              <mxPoint x="1130" y="1165" />
              <mxPoint x="1130" y="1375" />
            </Array>
          </mxGeometry>
        </mxCell>
        <mxCell id="K2IEWOI--zp7ypRuiyLS-2" value="&lt;font style=&quot;font-size: 21px;&quot;&gt;&lt;b&gt;&lt;i&gt;este scrisă&lt;/i&gt;&lt;/b&gt;&lt;/font&gt;" style="text;html=1;align=center;verticalAlign=middle;resizable=0;points=[];autosize=1;strokeColor=none;fillColor=none;" parent="1" vertex="1">
          <mxGeometry x="1130" y="1200" width="130" height="40" as="geometry" />
        </mxCell>
        <mxCell id="K2IEWOI--zp7ypRuiyLS-4" value="&lt;font style=&quot;font-size: 21px;&quot;&gt;&lt;b&gt;scrie&lt;/b&gt;&lt;/font&gt;" style="text;html=1;align=center;verticalAlign=middle;resizable=0;points=[];autosize=1;strokeColor=none;fillColor=none;" parent="1" vertex="1">
          <mxGeometry x="1050" y="1260" width="70" height="40" as="geometry" />
        </mxCell>
        <mxCell id="K2IEWOI--zp7ypRuiyLS-5" value="" style="edgeStyle=orthogonalEdgeStyle;fontSize=12;html=1;endArrow=ERmany;startArrow=ERoneToMany;rounded=0;exitX=1;exitY=0.5;exitDx=0;exitDy=0;entryX=0;entryY=0.5;entryDx=0;entryDy=0;jumpStyle=none;strokeWidth=5;endSize=22;startSize=22;targetPerimeterSpacing=5;sourcePerimeterSpacing=5;endFill=0;startFill=0;elbow=vertical;curved=1;" parent="1" source="XgE70LmsuouHb_Qgxm-G-171" target="HTnMNNAMFDqcmNRor3eO-85" edge="1">
          <mxGeometry width="100" height="100" relative="1" as="geometry">
            <mxPoint x="1033" y="1490" as="sourcePoint" />
            <mxPoint x="1244" y="1700" as="targetPoint" />
            <Array as="points">
              <mxPoint x="1130" y="1765" />
              <mxPoint x="1130" y="1590" />
            </Array>
          </mxGeometry>
        </mxCell>
        <mxCell id="K2IEWOI--zp7ypRuiyLS-57" value="REGIONS" style="shape=table;startSize=30;container=1;collapsible=0;childLayout=tableLayout;fixedRows=1;rowLines=0;fontStyle=1;fontSize=16;fillColor=#d80073;fontColor=#ffffff;strokeColor=#FFFFFF;" parent="1" vertex="1">
          <mxGeometry x="770" y="750" width="320" height="150" as="geometry" />
        </mxCell>
        <mxCell id="K2IEWOI--zp7ypRuiyLS-58" value="" style="shape=tableRow;horizontal=0;startSize=0;swimlaneHead=0;swimlaneBody=0;top=0;left=0;bottom=0;right=0;collapsible=0;dropTarget=0;fillColor=none;points=[[0,0.5],[1,0.5]];portConstraint=eastwest;strokeColor=inherit;fontSize=16;strokeWidth=3;" parent="K2IEWOI--zp7ypRuiyLS-57" vertex="1">
          <mxGeometry y="30" width="320" height="30" as="geometry" />
        </mxCell>
        <mxCell id="K2IEWOI--zp7ypRuiyLS-59" value="PK" style="shape=partialRectangle;html=1;whiteSpace=wrap;connectable=0;fillColor=none;top=0;left=0;bottom=0;right=0;overflow=hidden;pointerEvents=1;strokeColor=#E6D0DE;fontSize=16;" parent="K2IEWOI--zp7ypRuiyLS-58" vertex="1">
          <mxGeometry width="36" height="30" as="geometry">
            <mxRectangle width="36" height="30" as="alternateBounds" />
          </mxGeometry>
        </mxCell>
        <mxCell id="K2IEWOI--zp7ypRuiyLS-60" value="region_id&amp;nbsp; &amp;nbsp; &amp;nbsp; &amp;nbsp; &amp;nbsp; &amp;nbsp; &amp;nbsp; &amp;nbsp;NUMBER(22,0)&amp;nbsp; &amp;nbsp; &amp;nbsp;" style="shape=partialRectangle;html=1;whiteSpace=wrap;connectable=0;fillColor=none;top=0;left=0;bottom=0;right=0;align=left;spacingLeft=6;overflow=hidden;strokeColor=#E6D0DE;fontSize=16;" parent="K2IEWOI--zp7ypRuiyLS-58" vertex="1">
          <mxGeometry x="36" width="284" height="30" as="geometry">
            <mxRectangle width="284" height="30" as="alternateBounds" />
          </mxGeometry>
        </mxCell>
        <mxCell id="K2IEWOI--zp7ypRuiyLS-61" value="" style="shape=tableRow;horizontal=0;startSize=0;swimlaneHead=0;swimlaneBody=0;top=0;left=0;bottom=0;right=0;collapsible=0;dropTarget=0;fillColor=none;points=[[0,0.5],[1,0.5]];portConstraint=eastwest;strokeColor=inherit;fontSize=16;" parent="K2IEWOI--zp7ypRuiyLS-57" vertex="1">
          <mxGeometry y="60" width="320" height="30" as="geometry" />
        </mxCell>
        <mxCell id="K2IEWOI--zp7ypRuiyLS-62" value="" style="shape=partialRectangle;html=1;whiteSpace=wrap;connectable=0;fillColor=none;top=0;left=0;bottom=0;right=0;overflow=hidden;strokeColor=inherit;fontSize=16;" parent="K2IEWOI--zp7ypRuiyLS-61" vertex="1">
          <mxGeometry width="36" height="30" as="geometry">
            <mxRectangle width="36" height="30" as="alternateBounds" />
          </mxGeometry>
        </mxCell>
        <mxCell id="K2IEWOI--zp7ypRuiyLS-63" value="region_name&amp;nbsp; &amp;nbsp; &amp;nbsp; &amp;nbsp; &amp;nbsp;VARCHAR2(200)" style="shape=partialRectangle;html=1;whiteSpace=wrap;connectable=0;fillColor=none;top=0;left=0;bottom=0;right=0;align=left;spacingLeft=6;overflow=hidden;strokeColor=inherit;fontSize=16;" parent="K2IEWOI--zp7ypRuiyLS-61" vertex="1">
          <mxGeometry x="36" width="284" height="30" as="geometry">
            <mxRectangle width="284" height="30" as="alternateBounds" />
          </mxGeometry>
        </mxCell>
        <mxCell id="K2IEWOI--zp7ypRuiyLS-67" value="" style="endArrow=none;html=1;rounded=0;strokeWidth=2;entryX=-0.002;entryY=-0.094;entryDx=0;entryDy=0;entryPerimeter=0;exitX=1.004;exitY=0.929;exitDx=0;exitDy=0;exitPerimeter=0;" parent="K2IEWOI--zp7ypRuiyLS-57" source="K2IEWOI--zp7ypRuiyLS-58" target="K2IEWOI--zp7ypRuiyLS-61" edge="1">
          <mxGeometry width="50" height="50" relative="1" as="geometry">
            <mxPoint x="130" y="240" as="sourcePoint" />
            <mxPoint y="89.57999999999998" as="targetPoint" />
          </mxGeometry>
        </mxCell>
        <mxCell id="K2IEWOI--zp7ypRuiyLS-86" value="" style="shape=tableRow;horizontal=0;startSize=0;swimlaneHead=0;swimlaneBody=0;top=0;left=0;bottom=0;right=0;collapsible=0;dropTarget=0;fillColor=none;points=[[0,0.5],[1,0.5]];portConstraint=eastwest;strokeColor=inherit;fontSize=16;" parent="K2IEWOI--zp7ypRuiyLS-57" vertex="1">
          <mxGeometry y="90" width="320" height="30" as="geometry" />
        </mxCell>
        <mxCell id="K2IEWOI--zp7ypRuiyLS-87" value="" style="shape=partialRectangle;html=1;whiteSpace=wrap;connectable=0;fillColor=none;top=0;left=0;bottom=0;right=0;overflow=hidden;strokeColor=inherit;fontSize=16;" parent="K2IEWOI--zp7ypRuiyLS-86" vertex="1">
          <mxGeometry width="36" height="30" as="geometry">
            <mxRectangle width="36" height="30" as="alternateBounds" />
          </mxGeometry>
        </mxCell>
        <mxCell id="K2IEWOI--zp7ypRuiyLS-88" value="creation_date&amp;nbsp; &amp;nbsp; &amp;nbsp; &amp;nbsp; TIMESTAMP" style="shape=partialRectangle;html=1;whiteSpace=wrap;connectable=0;fillColor=none;top=0;left=0;bottom=0;right=0;align=left;spacingLeft=6;overflow=hidden;strokeColor=inherit;fontSize=16;" parent="K2IEWOI--zp7ypRuiyLS-86" vertex="1">
          <mxGeometry x="36" width="284" height="30" as="geometry">
            <mxRectangle width="284" height="30" as="alternateBounds" />
          </mxGeometry>
        </mxCell>
        <mxCell id="K2IEWOI--zp7ypRuiyLS-159" value="" style="shape=tableRow;horizontal=0;startSize=0;swimlaneHead=0;swimlaneBody=0;top=0;left=0;bottom=0;right=0;collapsible=0;dropTarget=0;fillColor=none;points=[[0,0.5],[1,0.5]];portConstraint=eastwest;strokeColor=inherit;fontSize=16;" parent="K2IEWOI--zp7ypRuiyLS-57" vertex="1">
          <mxGeometry y="120" width="320" height="30" as="geometry" />
        </mxCell>
        <mxCell id="K2IEWOI--zp7ypRuiyLS-160" value="" style="shape=partialRectangle;html=1;whiteSpace=wrap;connectable=0;fillColor=none;top=0;left=0;bottom=0;right=0;overflow=hidden;strokeColor=inherit;fontSize=16;" parent="K2IEWOI--zp7ypRuiyLS-159" vertex="1">
          <mxGeometry width="36" height="30" as="geometry">
            <mxRectangle width="36" height="30" as="alternateBounds" />
          </mxGeometry>
        </mxCell>
        <mxCell id="K2IEWOI--zp7ypRuiyLS-161" value="update_date&amp;nbsp; &amp;nbsp; &amp;nbsp; &amp;nbsp; &amp;nbsp; TIMESTAMP" style="shape=partialRectangle;html=1;whiteSpace=wrap;connectable=0;fillColor=none;top=0;left=0;bottom=0;right=0;align=left;spacingLeft=6;overflow=hidden;strokeColor=inherit;fontSize=16;" parent="K2IEWOI--zp7ypRuiyLS-159" vertex="1">
          <mxGeometry x="36" width="284" height="30" as="geometry">
            <mxRectangle width="284" height="30" as="alternateBounds" />
          </mxGeometry>
        </mxCell>
        <mxCell id="K2IEWOI--zp7ypRuiyLS-107" value="" style="endArrow=none;html=1;rounded=0;strokeWidth=2;entryX=0.477;entryY=0.033;entryDx=0;entryDy=0;entryPerimeter=0;exitX=0.473;exitY=1.033;exitDx=0;exitDy=0;exitPerimeter=0;" parent="K2IEWOI--zp7ypRuiyLS-57" source="K2IEWOI--zp7ypRuiyLS-159" target="K2IEWOI--zp7ypRuiyLS-58" edge="1">
          <mxGeometry width="50" height="50" relative="1" as="geometry">
            <mxPoint x="380.9000000000001" y="419.01" as="sourcePoint" />
            <mxPoint x="380" y="40" as="targetPoint" />
          </mxGeometry>
        </mxCell>
        <mxCell id="K2IEWOI--zp7ypRuiyLS-108" value="LOCATIONS" style="shape=table;startSize=30;container=1;collapsible=0;childLayout=tableLayout;fixedRows=1;rowLines=0;fontStyle=1;fontSize=16;fillColor=#1ba1e2;fontColor=#ffffff;strokeColor=#FFFFFF;" parent="1" vertex="1">
          <mxGeometry x="1809" y="750" width="330" height="250" as="geometry" />
        </mxCell>
        <mxCell id="K2IEWOI--zp7ypRuiyLS-109" value="" style="shape=tableRow;horizontal=0;startSize=0;swimlaneHead=0;swimlaneBody=0;top=0;left=0;bottom=0;right=0;collapsible=0;dropTarget=0;fillColor=none;points=[[0,0.5],[1,0.5]];portConstraint=eastwest;strokeColor=inherit;fontSize=16;strokeWidth=3;" parent="K2IEWOI--zp7ypRuiyLS-108" vertex="1">
          <mxGeometry y="30" width="330" height="30" as="geometry" />
        </mxCell>
        <mxCell id="K2IEWOI--zp7ypRuiyLS-110" value="PK" style="shape=partialRectangle;html=1;whiteSpace=wrap;connectable=0;fillColor=none;top=0;left=0;bottom=0;right=0;overflow=hidden;pointerEvents=1;strokeColor=#E6D0DE;fontSize=16;" parent="K2IEWOI--zp7ypRuiyLS-109" vertex="1">
          <mxGeometry width="37" height="30" as="geometry">
            <mxRectangle width="37" height="30" as="alternateBounds" />
          </mxGeometry>
        </mxCell>
        <mxCell id="K2IEWOI--zp7ypRuiyLS-111" value="location_id&amp;nbsp; &amp;nbsp; &amp;nbsp; &amp;nbsp; &amp;nbsp; &amp;nbsp; &amp;nbsp;NUMBER(22,0)&amp;nbsp; &amp;nbsp; &amp;nbsp;" style="shape=partialRectangle;html=1;whiteSpace=wrap;connectable=0;fillColor=none;top=0;left=0;bottom=0;right=0;align=left;spacingLeft=6;overflow=hidden;strokeColor=#E6D0DE;fontSize=16;" parent="K2IEWOI--zp7ypRuiyLS-109" vertex="1">
          <mxGeometry x="37" width="293" height="30" as="geometry">
            <mxRectangle width="293" height="30" as="alternateBounds" />
          </mxGeometry>
        </mxCell>
        <mxCell id="K2IEWOI--zp7ypRuiyLS-112" value="" style="shape=tableRow;horizontal=0;startSize=0;swimlaneHead=0;swimlaneBody=0;top=0;left=0;bottom=0;right=0;collapsible=0;dropTarget=0;fillColor=none;points=[[0,0.5],[1,0.5]];portConstraint=eastwest;strokeColor=inherit;fontSize=16;" parent="K2IEWOI--zp7ypRuiyLS-108" vertex="1">
          <mxGeometry y="60" width="330" height="20" as="geometry" />
        </mxCell>
        <mxCell id="K2IEWOI--zp7ypRuiyLS-113" value="" style="shape=partialRectangle;html=1;whiteSpace=wrap;connectable=0;fillColor=none;top=0;left=0;bottom=0;right=0;overflow=hidden;strokeColor=inherit;fontSize=16;" parent="K2IEWOI--zp7ypRuiyLS-112" vertex="1">
          <mxGeometry width="37" height="20" as="geometry">
            <mxRectangle width="37" height="20" as="alternateBounds" />
          </mxGeometry>
        </mxCell>
        <mxCell id="K2IEWOI--zp7ypRuiyLS-114" value="street_address&amp;nbsp; &amp;nbsp; &amp;nbsp; VARCHAR2(100)&amp;nbsp; &amp;nbsp;&amp;nbsp;" style="shape=partialRectangle;html=1;whiteSpace=wrap;connectable=0;fillColor=none;top=0;left=0;bottom=0;right=0;align=left;spacingLeft=6;overflow=hidden;strokeColor=inherit;fontSize=16;" parent="K2IEWOI--zp7ypRuiyLS-112" vertex="1">
          <mxGeometry x="37" width="293" height="20" as="geometry">
            <mxRectangle width="293" height="20" as="alternateBounds" />
          </mxGeometry>
        </mxCell>
        <mxCell id="K2IEWOI--zp7ypRuiyLS-115" value="" style="shape=tableRow;horizontal=0;startSize=0;swimlaneHead=0;swimlaneBody=0;top=0;left=0;bottom=0;right=0;collapsible=0;dropTarget=0;fillColor=none;points=[[0,0.5],[1,0.5]];portConstraint=eastwest;strokeColor=inherit;fontSize=16;" parent="K2IEWOI--zp7ypRuiyLS-108" vertex="1">
          <mxGeometry y="80" width="330" height="20" as="geometry" />
        </mxCell>
        <mxCell id="K2IEWOI--zp7ypRuiyLS-116" value="" style="shape=partialRectangle;html=1;whiteSpace=wrap;connectable=0;fillColor=none;top=0;left=0;bottom=0;right=0;overflow=hidden;strokeColor=inherit;fontSize=16;" parent="K2IEWOI--zp7ypRuiyLS-115" vertex="1">
          <mxGeometry width="37" height="20" as="geometry">
            <mxRectangle width="37" height="20" as="alternateBounds" />
          </mxGeometry>
        </mxCell>
        <mxCell id="K2IEWOI--zp7ypRuiyLS-117" value="postal_code&amp;nbsp; &amp;nbsp; &amp;nbsp; &amp;nbsp; &amp;nbsp; VARCHAR2(15)&amp;nbsp; &amp;nbsp; &amp;nbsp; &amp;nbsp; &amp;nbsp; &amp;nbsp; &amp;nbsp; &amp;nbsp; &amp;nbsp; &amp;nbsp;&amp;nbsp;" style="shape=partialRectangle;html=1;whiteSpace=wrap;connectable=0;fillColor=none;top=0;left=0;bottom=0;right=0;align=left;spacingLeft=6;overflow=hidden;strokeColor=inherit;fontSize=16;" parent="K2IEWOI--zp7ypRuiyLS-115" vertex="1">
          <mxGeometry x="37" width="293" height="20" as="geometry">
            <mxRectangle width="293" height="20" as="alternateBounds" />
          </mxGeometry>
        </mxCell>
        <mxCell id="K2IEWOI--zp7ypRuiyLS-118" value="" style="endArrow=none;html=1;rounded=0;strokeWidth=2;entryX=-0.002;entryY=-0.094;entryDx=0;entryDy=0;entryPerimeter=0;exitX=1.004;exitY=0.929;exitDx=0;exitDy=0;exitPerimeter=0;" parent="K2IEWOI--zp7ypRuiyLS-108" source="K2IEWOI--zp7ypRuiyLS-109" target="K2IEWOI--zp7ypRuiyLS-112" edge="1">
          <mxGeometry width="50" height="50" relative="1" as="geometry">
            <mxPoint x="130" y="240" as="sourcePoint" />
            <mxPoint y="89.57999999999998" as="targetPoint" />
          </mxGeometry>
        </mxCell>
        <mxCell id="K2IEWOI--zp7ypRuiyLS-119" value="" style="shape=tableRow;horizontal=0;startSize=0;swimlaneHead=0;swimlaneBody=0;top=0;left=0;bottom=0;right=0;collapsible=0;dropTarget=0;fillColor=none;points=[[0,0.5],[1,0.5]];portConstraint=eastwest;strokeColor=inherit;fontSize=16;" parent="K2IEWOI--zp7ypRuiyLS-108" vertex="1">
          <mxGeometry y="100" width="330" height="20" as="geometry" />
        </mxCell>
        <mxCell id="K2IEWOI--zp7ypRuiyLS-120" value="" style="shape=partialRectangle;html=1;whiteSpace=wrap;connectable=0;fillColor=none;top=0;left=0;bottom=0;right=0;overflow=hidden;strokeColor=inherit;fontSize=16;" parent="K2IEWOI--zp7ypRuiyLS-119" vertex="1">
          <mxGeometry width="37" height="20" as="geometry">
            <mxRectangle width="37" height="20" as="alternateBounds" />
          </mxGeometry>
        </mxCell>
        <mxCell id="K2IEWOI--zp7ypRuiyLS-121" value="city&amp;nbsp; &amp;nbsp; &amp;nbsp; &amp;nbsp; &amp;nbsp; &amp;nbsp; &amp;nbsp; &amp;nbsp; &amp;nbsp; &amp;nbsp; &amp;nbsp; &amp;nbsp; &amp;nbsp;VARCHAR2(200)" style="shape=partialRectangle;html=1;whiteSpace=wrap;connectable=0;fillColor=none;top=0;left=0;bottom=0;right=0;align=left;spacingLeft=6;overflow=hidden;strokeColor=inherit;fontSize=16;" parent="K2IEWOI--zp7ypRuiyLS-119" vertex="1">
          <mxGeometry x="37" width="293" height="20" as="geometry">
            <mxRectangle width="293" height="20" as="alternateBounds" />
          </mxGeometry>
        </mxCell>
        <mxCell id="K2IEWOI--zp7ypRuiyLS-122" value="" style="shape=tableRow;horizontal=0;startSize=0;swimlaneHead=0;swimlaneBody=0;top=0;left=0;bottom=0;right=0;collapsible=0;dropTarget=0;fillColor=none;points=[[0,0.5],[1,0.5]];portConstraint=eastwest;strokeColor=inherit;fontSize=16;" parent="K2IEWOI--zp7ypRuiyLS-108" vertex="1">
          <mxGeometry y="120" width="330" height="20" as="geometry" />
        </mxCell>
        <mxCell id="K2IEWOI--zp7ypRuiyLS-123" value="" style="shape=partialRectangle;html=1;whiteSpace=wrap;connectable=0;fillColor=none;top=0;left=0;bottom=0;right=0;overflow=hidden;strokeColor=inherit;fontSize=16;" parent="K2IEWOI--zp7ypRuiyLS-122" vertex="1">
          <mxGeometry width="37" height="20" as="geometry">
            <mxRectangle width="37" height="20" as="alternateBounds" />
          </mxGeometry>
        </mxCell>
        <mxCell id="K2IEWOI--zp7ypRuiyLS-124" value="state_province&amp;nbsp; &amp;nbsp; &amp;nbsp; &amp;nbsp;VARCHAR2(100)" style="shape=partialRectangle;html=1;whiteSpace=wrap;connectable=0;fillColor=none;top=0;left=0;bottom=0;right=0;align=left;spacingLeft=6;overflow=hidden;strokeColor=inherit;fontSize=16;" parent="K2IEWOI--zp7ypRuiyLS-122" vertex="1">
          <mxGeometry x="37" width="293" height="20" as="geometry">
            <mxRectangle width="293" height="20" as="alternateBounds" />
          </mxGeometry>
        </mxCell>
        <mxCell id="K2IEWOI--zp7ypRuiyLS-125" value="" style="shape=tableRow;horizontal=0;startSize=0;swimlaneHead=0;swimlaneBody=0;top=0;left=0;bottom=0;right=0;collapsible=0;dropTarget=0;fillColor=none;points=[[0,0.5],[1,0.5]];portConstraint=eastwest;strokeColor=inherit;fontSize=16;" parent="K2IEWOI--zp7ypRuiyLS-108" vertex="1">
          <mxGeometry y="140" width="330" height="20" as="geometry" />
        </mxCell>
        <mxCell id="K2IEWOI--zp7ypRuiyLS-126" value="FK" style="shape=partialRectangle;html=1;whiteSpace=wrap;connectable=0;fillColor=none;top=0;left=0;bottom=0;right=0;overflow=hidden;strokeColor=inherit;fontSize=16;" parent="K2IEWOI--zp7ypRuiyLS-125" vertex="1">
          <mxGeometry width="37" height="20" as="geometry">
            <mxRectangle width="37" height="20" as="alternateBounds" />
          </mxGeometry>
        </mxCell>
        <mxCell id="K2IEWOI--zp7ypRuiyLS-127" value="country_id&amp;nbsp; &amp;nbsp; &amp;nbsp; &amp;nbsp; &amp;nbsp; &amp;nbsp; &amp;nbsp; NUMBER(22,0)" style="shape=partialRectangle;html=1;whiteSpace=wrap;connectable=0;fillColor=none;top=0;left=0;bottom=0;right=0;align=left;spacingLeft=6;overflow=hidden;strokeColor=inherit;fontSize=16;" parent="K2IEWOI--zp7ypRuiyLS-125" vertex="1">
          <mxGeometry x="37" width="293" height="20" as="geometry">
            <mxRectangle width="293" height="20" as="alternateBounds" />
          </mxGeometry>
        </mxCell>
        <mxCell id="K2IEWOI--zp7ypRuiyLS-152" value="" style="shape=tableRow;horizontal=0;startSize=0;swimlaneHead=0;swimlaneBody=0;top=0;left=0;bottom=0;right=0;collapsible=0;dropTarget=0;fillColor=none;points=[[0,0.5],[1,0.5]];portConstraint=eastwest;strokeColor=inherit;fontSize=16;" parent="K2IEWOI--zp7ypRuiyLS-108" vertex="1">
          <mxGeometry y="160" width="330" height="30" as="geometry" />
        </mxCell>
        <mxCell id="K2IEWOI--zp7ypRuiyLS-153" value="" style="shape=partialRectangle;html=1;whiteSpace=wrap;connectable=0;fillColor=none;top=0;left=0;bottom=0;right=0;overflow=hidden;strokeColor=inherit;fontSize=16;" parent="K2IEWOI--zp7ypRuiyLS-152" vertex="1">
          <mxGeometry width="37" height="30" as="geometry">
            <mxRectangle width="37" height="30" as="alternateBounds" />
          </mxGeometry>
        </mxCell>
        <mxCell id="K2IEWOI--zp7ypRuiyLS-154" value="creation_date&amp;nbsp; &amp;nbsp; &amp;nbsp; &amp;nbsp; TIMESTAMP" style="shape=partialRectangle;html=1;whiteSpace=wrap;connectable=0;fillColor=none;top=0;left=0;bottom=0;right=0;align=left;spacingLeft=6;overflow=hidden;strokeColor=inherit;fontSize=16;" parent="K2IEWOI--zp7ypRuiyLS-152" vertex="1">
          <mxGeometry x="37" width="293" height="30" as="geometry">
            <mxRectangle width="293" height="30" as="alternateBounds" />
          </mxGeometry>
        </mxCell>
        <mxCell id="K2IEWOI--zp7ypRuiyLS-155" value="" style="shape=tableRow;horizontal=0;startSize=0;swimlaneHead=0;swimlaneBody=0;top=0;left=0;bottom=0;right=0;collapsible=0;dropTarget=0;fillColor=none;points=[[0,0.5],[1,0.5]];portConstraint=eastwest;strokeColor=inherit;fontSize=16;" parent="K2IEWOI--zp7ypRuiyLS-108" vertex="1">
          <mxGeometry y="190" width="330" height="30" as="geometry" />
        </mxCell>
        <mxCell id="K2IEWOI--zp7ypRuiyLS-156" value="" style="shape=partialRectangle;html=1;whiteSpace=wrap;connectable=0;fillColor=none;top=0;left=0;bottom=0;right=0;overflow=hidden;strokeColor=inherit;fontSize=16;" parent="K2IEWOI--zp7ypRuiyLS-155" vertex="1">
          <mxGeometry width="37" height="30" as="geometry">
            <mxRectangle width="37" height="30" as="alternateBounds" />
          </mxGeometry>
        </mxCell>
        <mxCell id="K2IEWOI--zp7ypRuiyLS-157" value="update_date&amp;nbsp; &amp;nbsp; &amp;nbsp; &amp;nbsp; &amp;nbsp; TIMESTAMP" style="shape=partialRectangle;html=1;whiteSpace=wrap;connectable=0;fillColor=none;top=0;left=0;bottom=0;right=0;align=left;spacingLeft=6;overflow=hidden;strokeColor=inherit;fontSize=16;" parent="K2IEWOI--zp7ypRuiyLS-155" vertex="1">
          <mxGeometry x="37" width="293" height="30" as="geometry">
            <mxRectangle width="293" height="30" as="alternateBounds" />
          </mxGeometry>
        </mxCell>
        <mxCell id="K2IEWOI--zp7ypRuiyLS-158" value="" style="endArrow=none;html=1;rounded=0;strokeWidth=2;entryX=0.512;entryY=0.033;entryDx=0;entryDy=0;entryPerimeter=0;exitX=0.502;exitY=1.067;exitDx=0;exitDy=0;exitPerimeter=0;" parent="K2IEWOI--zp7ypRuiyLS-108" edge="1" source="0KGe4UdDs58mVBFfJjbx-3">
          <mxGeometry width="50" height="50" relative="1" as="geometry">
            <mxPoint x="166" y="220" as="sourcePoint" />
            <mxPoint x="165.5999999999999" y="30.99000000000001" as="targetPoint" />
          </mxGeometry>
        </mxCell>
        <mxCell id="0KGe4UdDs58mVBFfJjbx-3" value="" style="shape=tableRow;horizontal=0;startSize=0;swimlaneHead=0;swimlaneBody=0;top=0;left=0;bottom=0;right=0;collapsible=0;dropTarget=0;fillColor=none;points=[[0,0.5],[1,0.5]];portConstraint=eastwest;strokeColor=inherit;fontSize=16;" vertex="1" parent="K2IEWOI--zp7ypRuiyLS-108">
          <mxGeometry y="220" width="330" height="30" as="geometry" />
        </mxCell>
        <mxCell id="0KGe4UdDs58mVBFfJjbx-4" value="FK" style="shape=partialRectangle;html=1;whiteSpace=wrap;connectable=0;fillColor=none;top=0;left=0;bottom=0;right=0;overflow=hidden;strokeColor=inherit;fontSize=16;" vertex="1" parent="0KGe4UdDs58mVBFfJjbx-3">
          <mxGeometry width="37" height="30" as="geometry">
            <mxRectangle width="37" height="30" as="alternateBounds" />
          </mxGeometry>
        </mxCell>
        <mxCell id="0KGe4UdDs58mVBFfJjbx-5" value="publisher_id&amp;nbsp; &amp;nbsp; &amp;nbsp; &amp;nbsp; &amp;nbsp; NUMBER(22,0)" style="shape=partialRectangle;html=1;whiteSpace=wrap;connectable=0;fillColor=none;top=0;left=0;bottom=0;right=0;align=left;spacingLeft=6;overflow=hidden;strokeColor=inherit;fontSize=16;" vertex="1" parent="0KGe4UdDs58mVBFfJjbx-3">
          <mxGeometry x="37" width="293" height="30" as="geometry">
            <mxRectangle width="293" height="30" as="alternateBounds" />
          </mxGeometry>
        </mxCell>
        <mxCell id="K2IEWOI--zp7ypRuiyLS-6" value="COUNTRIES" style="shape=table;startSize=30;container=1;collapsible=0;childLayout=tableLayout;fixedRows=1;rowLines=0;fontStyle=1;fontSize=16;fillColor=#a20025;fontColor=#ffffff;strokeColor=#FFFFFF;" parent="1" vertex="1">
          <mxGeometry x="1249" y="740" width="310" height="190" as="geometry" />
        </mxCell>
        <mxCell id="K2IEWOI--zp7ypRuiyLS-7" value="" style="shape=tableRow;horizontal=0;startSize=0;swimlaneHead=0;swimlaneBody=0;top=0;left=0;bottom=0;right=0;collapsible=0;dropTarget=0;fillColor=none;points=[[0,0.5],[1,0.5]];portConstraint=eastwest;strokeColor=inherit;fontSize=16;strokeWidth=3;" parent="K2IEWOI--zp7ypRuiyLS-6" vertex="1">
          <mxGeometry y="30" width="310" height="30" as="geometry" />
        </mxCell>
        <mxCell id="K2IEWOI--zp7ypRuiyLS-8" value="PK" style="shape=partialRectangle;html=1;whiteSpace=wrap;connectable=0;fillColor=none;top=0;left=0;bottom=0;right=0;overflow=hidden;pointerEvents=1;strokeColor=#E6D0DE;fontSize=16;" parent="K2IEWOI--zp7ypRuiyLS-7" vertex="1">
          <mxGeometry width="36" height="30" as="geometry">
            <mxRectangle width="36" height="30" as="alternateBounds" />
          </mxGeometry>
        </mxCell>
        <mxCell id="K2IEWOI--zp7ypRuiyLS-9" value="country_id&amp;nbsp; &amp;nbsp; &amp;nbsp; &amp;nbsp; &amp;nbsp; &amp;nbsp; &amp;nbsp;NUMBER(22,0)" style="shape=partialRectangle;html=1;whiteSpace=wrap;connectable=0;fillColor=none;top=0;left=0;bottom=0;right=0;align=left;spacingLeft=6;overflow=hidden;strokeColor=#E6D0DE;fontSize=16;" parent="K2IEWOI--zp7ypRuiyLS-7" vertex="1">
          <mxGeometry x="36" width="274" height="30" as="geometry">
            <mxRectangle width="274" height="30" as="alternateBounds" />
          </mxGeometry>
        </mxCell>
        <mxCell id="K2IEWOI--zp7ypRuiyLS-10" value="" style="shape=tableRow;horizontal=0;startSize=0;swimlaneHead=0;swimlaneBody=0;top=0;left=0;bottom=0;right=0;collapsible=0;dropTarget=0;fillColor=none;points=[[0,0.5],[1,0.5]];portConstraint=eastwest;strokeColor=inherit;fontSize=16;" parent="K2IEWOI--zp7ypRuiyLS-6" vertex="1">
          <mxGeometry y="60" width="310" height="30" as="geometry" />
        </mxCell>
        <mxCell id="K2IEWOI--zp7ypRuiyLS-11" value="" style="shape=partialRectangle;html=1;whiteSpace=wrap;connectable=0;fillColor=none;top=0;left=0;bottom=0;right=0;overflow=hidden;strokeColor=inherit;fontSize=16;" parent="K2IEWOI--zp7ypRuiyLS-10" vertex="1">
          <mxGeometry width="36" height="30" as="geometry">
            <mxRectangle width="36" height="30" as="alternateBounds" />
          </mxGeometry>
        </mxCell>
        <mxCell id="K2IEWOI--zp7ypRuiyLS-12" value="country_name&amp;nbsp; &amp;nbsp; &amp;nbsp; VARCHAR2(200)" style="shape=partialRectangle;html=1;whiteSpace=wrap;connectable=0;fillColor=none;top=0;left=0;bottom=0;right=0;align=left;spacingLeft=6;overflow=hidden;strokeColor=inherit;fontSize=16;" parent="K2IEWOI--zp7ypRuiyLS-10" vertex="1">
          <mxGeometry x="36" width="274" height="30" as="geometry">
            <mxRectangle width="274" height="30" as="alternateBounds" />
          </mxGeometry>
        </mxCell>
        <mxCell id="K2IEWOI--zp7ypRuiyLS-13" value="" style="shape=tableRow;horizontal=0;startSize=0;swimlaneHead=0;swimlaneBody=0;top=0;left=0;bottom=0;right=0;collapsible=0;dropTarget=0;fillColor=none;points=[[0,0.5],[1,0.5]];portConstraint=eastwest;strokeColor=inherit;fontSize=16;" parent="K2IEWOI--zp7ypRuiyLS-6" vertex="1">
          <mxGeometry y="90" width="310" height="30" as="geometry" />
        </mxCell>
        <mxCell id="K2IEWOI--zp7ypRuiyLS-14" value="FK" style="shape=partialRectangle;html=1;whiteSpace=wrap;connectable=0;fillColor=none;top=0;left=0;bottom=0;right=0;overflow=hidden;strokeColor=inherit;fontSize=16;" parent="K2IEWOI--zp7ypRuiyLS-13" vertex="1">
          <mxGeometry width="36" height="30" as="geometry">
            <mxRectangle width="36" height="30" as="alternateBounds" />
          </mxGeometry>
        </mxCell>
        <mxCell id="K2IEWOI--zp7ypRuiyLS-15" value="region_id&amp;nbsp; &amp;nbsp; &amp;nbsp; &amp;nbsp; &amp;nbsp; &amp;nbsp; &amp;nbsp; &amp;nbsp;NUMBER(22,0)&amp;nbsp; &amp;nbsp; &amp;nbsp;" style="shape=partialRectangle;html=1;whiteSpace=wrap;connectable=0;fillColor=none;top=0;left=0;bottom=0;right=0;align=left;spacingLeft=6;overflow=hidden;strokeColor=inherit;fontSize=16;" parent="K2IEWOI--zp7ypRuiyLS-13" vertex="1">
          <mxGeometry x="36" width="274" height="30" as="geometry">
            <mxRectangle width="274" height="30" as="alternateBounds" />
          </mxGeometry>
        </mxCell>
        <mxCell id="K2IEWOI--zp7ypRuiyLS-16" value="" style="endArrow=none;html=1;rounded=0;strokeWidth=2;entryX=-0.002;entryY=-0.094;entryDx=0;entryDy=0;entryPerimeter=0;exitX=1.004;exitY=0.929;exitDx=0;exitDy=0;exitPerimeter=0;" parent="K2IEWOI--zp7ypRuiyLS-6" source="K2IEWOI--zp7ypRuiyLS-7" target="K2IEWOI--zp7ypRuiyLS-10" edge="1">
          <mxGeometry width="50" height="50" relative="1" as="geometry">
            <mxPoint x="130" y="240" as="sourcePoint" />
            <mxPoint y="89.57999999999998" as="targetPoint" />
          </mxGeometry>
        </mxCell>
        <mxCell id="K2IEWOI--zp7ypRuiyLS-23" value="" style="shape=tableRow;horizontal=0;startSize=0;swimlaneHead=0;swimlaneBody=0;top=0;left=0;bottom=0;right=0;collapsible=0;dropTarget=0;fillColor=none;points=[[0,0.5],[1,0.5]];portConstraint=eastwest;strokeColor=inherit;fontSize=16;" parent="K2IEWOI--zp7ypRuiyLS-6" vertex="1">
          <mxGeometry y="120" width="310" height="30" as="geometry" />
        </mxCell>
        <mxCell id="K2IEWOI--zp7ypRuiyLS-24" value="" style="shape=partialRectangle;html=1;whiteSpace=wrap;connectable=0;fillColor=none;top=0;left=0;bottom=0;right=0;overflow=hidden;strokeColor=inherit;fontSize=16;" parent="K2IEWOI--zp7ypRuiyLS-23" vertex="1">
          <mxGeometry width="36" height="30" as="geometry">
            <mxRectangle width="36" height="30" as="alternateBounds" />
          </mxGeometry>
        </mxCell>
        <mxCell id="K2IEWOI--zp7ypRuiyLS-25" value="creation_date&amp;nbsp; &amp;nbsp; &amp;nbsp; &amp;nbsp; TIMESTAMP" style="shape=partialRectangle;html=1;whiteSpace=wrap;connectable=0;fillColor=none;top=0;left=0;bottom=0;right=0;align=left;spacingLeft=6;overflow=hidden;strokeColor=inherit;fontSize=16;" parent="K2IEWOI--zp7ypRuiyLS-23" vertex="1">
          <mxGeometry x="36" width="274" height="30" as="geometry">
            <mxRectangle width="274" height="30" as="alternateBounds" />
          </mxGeometry>
        </mxCell>
        <mxCell id="K2IEWOI--zp7ypRuiyLS-26" value="" style="shape=tableRow;horizontal=0;startSize=0;swimlaneHead=0;swimlaneBody=0;top=0;left=0;bottom=0;right=0;collapsible=0;dropTarget=0;fillColor=none;points=[[0,0.5],[1,0.5]];portConstraint=eastwest;strokeColor=inherit;fontSize=16;" parent="K2IEWOI--zp7ypRuiyLS-6" vertex="1">
          <mxGeometry y="150" width="310" height="40" as="geometry" />
        </mxCell>
        <mxCell id="K2IEWOI--zp7ypRuiyLS-27" value="" style="shape=partialRectangle;html=1;whiteSpace=wrap;connectable=0;fillColor=none;top=0;left=0;bottom=0;right=0;overflow=hidden;strokeColor=inherit;fontSize=16;" parent="K2IEWOI--zp7ypRuiyLS-26" vertex="1">
          <mxGeometry width="36" height="40" as="geometry">
            <mxRectangle width="36" height="40" as="alternateBounds" />
          </mxGeometry>
        </mxCell>
        <mxCell id="K2IEWOI--zp7ypRuiyLS-28" value="update_date&amp;nbsp; &amp;nbsp; &amp;nbsp; &amp;nbsp; &amp;nbsp; TIMESTAMP" style="shape=partialRectangle;html=1;whiteSpace=wrap;connectable=0;fillColor=none;top=0;left=0;bottom=0;right=0;align=left;spacingLeft=6;overflow=hidden;strokeColor=inherit;fontSize=16;" parent="K2IEWOI--zp7ypRuiyLS-26" vertex="1">
          <mxGeometry x="36" width="274" height="40" as="geometry">
            <mxRectangle width="274" height="40" as="alternateBounds" />
          </mxGeometry>
        </mxCell>
        <mxCell id="K2IEWOI--zp7ypRuiyLS-56" value="" style="endArrow=none;html=1;rounded=0;strokeWidth=2;entryX=0.493;entryY=0.033;entryDx=0;entryDy=0;entryPerimeter=0;exitX=0.493;exitY=1.025;exitDx=0;exitDy=0;exitPerimeter=0;" parent="K2IEWOI--zp7ypRuiyLS-6" source="K2IEWOI--zp7ypRuiyLS-26" target="K2IEWOI--zp7ypRuiyLS-7" edge="1">
          <mxGeometry width="50" height="50" relative="1" as="geometry">
            <mxPoint x="410.9000000000001" y="314.51" as="sourcePoint" />
            <mxPoint x="410" y="-64.5" as="targetPoint" />
          </mxGeometry>
        </mxCell>
        <mxCell id="K2IEWOI--zp7ypRuiyLS-162" value="" style="fontSize=12;html=1;endArrow=ERmany;startArrow=none;rounded=0;exitX=1;exitY=0.5;exitDx=0;exitDy=0;entryX=0;entryY=-0.11;entryDx=0;entryDy=0;jumpStyle=none;strokeWidth=5;endSize=22;startSize=22;targetPerimeterSpacing=5;sourcePerimeterSpacing=5;endFill=0;startFill=0;entryPerimeter=0;elbow=vertical;" parent="1" source="K2IEWOI--zp7ypRuiyLS-86" target="K2IEWOI--zp7ypRuiyLS-23" edge="1">
          <mxGeometry width="100" height="100" relative="1" as="geometry">
            <mxPoint x="1079" y="1000" as="sourcePoint" />
            <mxPoint x="1290" y="1210" as="targetPoint" />
          </mxGeometry>
        </mxCell>
        <mxCell id="K2IEWOI--zp7ypRuiyLS-163" value="" style="fontSize=12;html=1;endArrow=ERmany;startArrow=none;rounded=0;exitX=1.004;exitY=0.129;exitDx=0;exitDy=0;entryX=-0.009;entryY=0.05;entryDx=0;entryDy=0;jumpStyle=none;strokeWidth=5;endSize=22;startSize=22;targetPerimeterSpacing=5;sourcePerimeterSpacing=5;endFill=0;startFill=0;entryPerimeter=0;elbow=vertical;exitPerimeter=0;" parent="1" source="K2IEWOI--zp7ypRuiyLS-23" target="K2IEWOI--zp7ypRuiyLS-122" edge="1">
          <mxGeometry width="100" height="100" relative="1" as="geometry">
            <mxPoint x="1599" y="865" as="sourcePoint" />
            <mxPoint x="1758" y="867" as="targetPoint" />
          </mxGeometry>
        </mxCell>
        <mxCell id="0KGe4UdDs58mVBFfJjbx-1" value="" style="fontSize=12;html=1;endArrow=none;startArrow=ERmany;rounded=0;entryX=0.25;entryY=0;entryDx=0;entryDy=0;jumpStyle=none;strokeWidth=5;endSize=22;startSize=22;targetPerimeterSpacing=5;sourcePerimeterSpacing=5;endFill=0;startFill=0;elbow=vertical;exitX=0.249;exitY=1.067;exitDx=0;exitDy=0;exitPerimeter=0;" edge="1" parent="1" source="0KGe4UdDs58mVBFfJjbx-3" target="XgE70LmsuouHb_Qgxm-G-55">
          <mxGeometry width="100" height="100" relative="1" as="geometry">
            <mxPoint x="1930" y="1050" as="sourcePoint" />
            <mxPoint x="2156" y="1047" as="targetPoint" />
          </mxGeometry>
        </mxCell>
        <mxCell id="0KGe4UdDs58mVBFfJjbx-2" value="" style="fontSize=12;html=1;endArrow=none;startArrow=ERmany;rounded=0;entryX=-0.001;entryY=0.178;entryDx=0;entryDy=0;jumpStyle=none;strokeWidth=5;endSize=22;startSize=22;targetPerimeterSpacing=5;sourcePerimeterSpacing=5;endFill=0;startFill=0;elbow=vertical;exitX=1;exitY=0.5;exitDx=0;exitDy=0;entryPerimeter=0;" edge="1" parent="1" source="HTnMNNAMFDqcmNRor3eO-43" target="XgE70LmsuouHb_Qgxm-G-90">
          <mxGeometry width="100" height="100" relative="1" as="geometry">
            <mxPoint x="1650" y="1160" as="sourcePoint" />
            <mxPoint x="1654" y="1308" as="targetPoint" />
          </mxGeometry>
        </mxCell>
        <mxCell id="0KGe4UdDs58mVBFfJjbx-6" value="" style="fontSize=12;html=1;endArrow=none;startArrow=ERmany;rounded=0;entryX=0;entryY=0.5;entryDx=0;entryDy=0;jumpStyle=none;strokeWidth=5;endSize=22;startSize=22;targetPerimeterSpacing=5;sourcePerimeterSpacing=5;endFill=0;startFill=0;elbow=vertical;exitX=1;exitY=0.5;exitDx=0;exitDy=0;edgeStyle=orthogonalEdgeStyle;curved=1;" edge="1" parent="1" source="HTnMNNAMFDqcmNRor3eO-91" target="XgE70LmsuouHb_Qgxm-G-113">
          <mxGeometry width="100" height="100" relative="1" as="geometry">
            <mxPoint x="1590" y="1665" as="sourcePoint" />
            <mxPoint x="1840" y="1660" as="targetPoint" />
            <Array as="points">
              <mxPoint x="1700" y="1645" />
              <mxPoint x="1700" y="1735" />
            </Array>
          </mxGeometry>
        </mxCell>
        <mxCell id="0KGe4UdDs58mVBFfJjbx-7" value="ORDERS" style="shape=table;startSize=30;container=1;collapsible=0;childLayout=tableLayout;fixedRows=1;rowLines=0;fontStyle=1;fontSize=16;fillColor=#fa6800;fontColor=#000000;strokeColor=#FFFFFF;" vertex="1" parent="1">
          <mxGeometry x="2420" y="1370" width="330" height="250" as="geometry" />
        </mxCell>
        <mxCell id="0KGe4UdDs58mVBFfJjbx-8" value="" style="shape=tableRow;horizontal=0;startSize=0;swimlaneHead=0;swimlaneBody=0;top=0;left=0;bottom=0;right=0;collapsible=0;dropTarget=0;fillColor=none;points=[[0,0.5],[1,0.5]];portConstraint=eastwest;strokeColor=inherit;fontSize=16;strokeWidth=3;" vertex="1" parent="0KGe4UdDs58mVBFfJjbx-7">
          <mxGeometry y="30" width="330" height="30" as="geometry" />
        </mxCell>
        <mxCell id="0KGe4UdDs58mVBFfJjbx-9" value="PK" style="shape=partialRectangle;html=1;whiteSpace=wrap;connectable=0;fillColor=none;top=0;left=0;bottom=0;right=0;overflow=hidden;pointerEvents=1;strokeColor=#E6D0DE;fontSize=16;" vertex="1" parent="0KGe4UdDs58mVBFfJjbx-8">
          <mxGeometry width="37" height="30" as="geometry">
            <mxRectangle width="37" height="30" as="alternateBounds" />
          </mxGeometry>
        </mxCell>
        <mxCell id="0KGe4UdDs58mVBFfJjbx-10" value="order_id&amp;nbsp; &amp;nbsp; &amp;nbsp; &amp;nbsp; &amp;nbsp; &amp;nbsp; &amp;nbsp; NUMBER(22,0)" style="shape=partialRectangle;html=1;whiteSpace=wrap;connectable=0;fillColor=none;top=0;left=0;bottom=0;right=0;align=left;spacingLeft=6;overflow=hidden;strokeColor=#E6D0DE;fontSize=16;" vertex="1" parent="0KGe4UdDs58mVBFfJjbx-8">
          <mxGeometry x="37" width="293" height="30" as="geometry">
            <mxRectangle width="293" height="30" as="alternateBounds" />
          </mxGeometry>
        </mxCell>
        <mxCell id="0KGe4UdDs58mVBFfJjbx-11" value="" style="shape=tableRow;horizontal=0;startSize=0;swimlaneHead=0;swimlaneBody=0;top=0;left=0;bottom=0;right=0;collapsible=0;dropTarget=0;fillColor=none;points=[[0,0.5],[1,0.5]];portConstraint=eastwest;strokeColor=inherit;fontSize=16;" vertex="1" parent="0KGe4UdDs58mVBFfJjbx-7">
          <mxGeometry y="60" width="330" height="20" as="geometry" />
        </mxCell>
        <mxCell id="0KGe4UdDs58mVBFfJjbx-12" value="FK" style="shape=partialRectangle;html=1;whiteSpace=wrap;connectable=0;fillColor=none;top=0;left=0;bottom=0;right=0;overflow=hidden;strokeColor=inherit;fontSize=16;" vertex="1" parent="0KGe4UdDs58mVBFfJjbx-11">
          <mxGeometry width="37" height="20" as="geometry">
            <mxRectangle width="37" height="20" as="alternateBounds" />
          </mxGeometry>
        </mxCell>
        <mxCell id="0KGe4UdDs58mVBFfJjbx-13" value="location_id&amp;nbsp; &amp;nbsp; &amp;nbsp; &amp;nbsp; &amp;nbsp; &amp;nbsp;NUMBER(22,0)" style="shape=partialRectangle;html=1;whiteSpace=wrap;connectable=0;fillColor=none;top=0;left=0;bottom=0;right=0;align=left;spacingLeft=6;overflow=hidden;strokeColor=inherit;fontSize=16;" vertex="1" parent="0KGe4UdDs58mVBFfJjbx-11">
          <mxGeometry x="37" width="293" height="20" as="geometry">
            <mxRectangle width="293" height="20" as="alternateBounds" />
          </mxGeometry>
        </mxCell>
        <mxCell id="0KGe4UdDs58mVBFfJjbx-14" value="" style="shape=tableRow;horizontal=0;startSize=0;swimlaneHead=0;swimlaneBody=0;top=0;left=0;bottom=0;right=0;collapsible=0;dropTarget=0;fillColor=none;points=[[0,0.5],[1,0.5]];portConstraint=eastwest;strokeColor=inherit;fontSize=16;" vertex="1" parent="0KGe4UdDs58mVBFfJjbx-7">
          <mxGeometry y="80" width="330" height="30" as="geometry" />
        </mxCell>
        <mxCell id="0KGe4UdDs58mVBFfJjbx-15" value="FK" style="shape=partialRectangle;html=1;whiteSpace=wrap;connectable=0;fillColor=none;top=0;left=0;bottom=0;right=0;overflow=hidden;strokeColor=inherit;fontSize=16;" vertex="1" parent="0KGe4UdDs58mVBFfJjbx-14">
          <mxGeometry width="37" height="30" as="geometry">
            <mxRectangle width="37" height="30" as="alternateBounds" />
          </mxGeometry>
        </mxCell>
        <mxCell id="0KGe4UdDs58mVBFfJjbx-16" value="account_id&amp;nbsp; &amp;nbsp; &amp;nbsp; &amp;nbsp; &amp;nbsp; &amp;nbsp;NUMBER(22,0)" style="shape=partialRectangle;html=1;whiteSpace=wrap;connectable=0;fillColor=none;top=0;left=0;bottom=0;right=0;align=left;spacingLeft=6;overflow=hidden;strokeColor=inherit;fontSize=16;" vertex="1" parent="0KGe4UdDs58mVBFfJjbx-14">
          <mxGeometry x="37" width="293" height="30" as="geometry">
            <mxRectangle width="293" height="30" as="alternateBounds" />
          </mxGeometry>
        </mxCell>
        <mxCell id="0KGe4UdDs58mVBFfJjbx-17" value="" style="endArrow=none;html=1;rounded=0;strokeWidth=2;entryX=-0.002;entryY=-0.094;entryDx=0;entryDy=0;entryPerimeter=0;exitX=1.004;exitY=0.929;exitDx=0;exitDy=0;exitPerimeter=0;" edge="1" parent="0KGe4UdDs58mVBFfJjbx-7" source="0KGe4UdDs58mVBFfJjbx-8" target="0KGe4UdDs58mVBFfJjbx-11">
          <mxGeometry width="50" height="50" relative="1" as="geometry">
            <mxPoint x="130" y="240" as="sourcePoint" />
            <mxPoint y="89.57999999999998" as="targetPoint" />
          </mxGeometry>
        </mxCell>
        <mxCell id="0KGe4UdDs58mVBFfJjbx-18" value="" style="shape=tableRow;horizontal=0;startSize=0;swimlaneHead=0;swimlaneBody=0;top=0;left=0;bottom=0;right=0;collapsible=0;dropTarget=0;fillColor=none;points=[[0,0.5],[1,0.5]];portConstraint=eastwest;strokeColor=inherit;fontSize=16;" vertex="1" parent="0KGe4UdDs58mVBFfJjbx-7">
          <mxGeometry y="110" width="330" height="30" as="geometry" />
        </mxCell>
        <mxCell id="0KGe4UdDs58mVBFfJjbx-19" value="" style="shape=partialRectangle;html=1;whiteSpace=wrap;connectable=0;fillColor=none;top=0;left=0;bottom=0;right=0;overflow=hidden;strokeColor=inherit;fontSize=16;" vertex="1" parent="0KGe4UdDs58mVBFfJjbx-18">
          <mxGeometry width="37" height="30" as="geometry">
            <mxRectangle width="37" height="30" as="alternateBounds" />
          </mxGeometry>
        </mxCell>
        <mxCell id="0KGe4UdDs58mVBFfJjbx-20" value="delivery_date&amp;nbsp; &amp;nbsp; &amp;nbsp; &amp;nbsp; TIMESTAMP" style="shape=partialRectangle;html=1;whiteSpace=wrap;connectable=0;fillColor=none;top=0;left=0;bottom=0;right=0;align=left;spacingLeft=6;overflow=hidden;strokeColor=inherit;fontSize=16;" vertex="1" parent="0KGe4UdDs58mVBFfJjbx-18">
          <mxGeometry x="37" width="293" height="30" as="geometry">
            <mxRectangle width="293" height="30" as="alternateBounds" />
          </mxGeometry>
        </mxCell>
        <mxCell id="0KGe4UdDs58mVBFfJjbx-21" value="" style="shape=tableRow;horizontal=0;startSize=0;swimlaneHead=0;swimlaneBody=0;top=0;left=0;bottom=0;right=0;collapsible=0;dropTarget=0;fillColor=none;points=[[0,0.5],[1,0.5]];portConstraint=eastwest;strokeColor=inherit;fontSize=16;" vertex="1" parent="0KGe4UdDs58mVBFfJjbx-7">
          <mxGeometry y="140" width="330" height="20" as="geometry" />
        </mxCell>
        <mxCell id="0KGe4UdDs58mVBFfJjbx-22" value="" style="shape=partialRectangle;html=1;whiteSpace=wrap;connectable=0;fillColor=none;top=0;left=0;bottom=0;right=0;overflow=hidden;strokeColor=inherit;fontSize=16;" vertex="1" parent="0KGe4UdDs58mVBFfJjbx-21">
          <mxGeometry width="37" height="20" as="geometry">
            <mxRectangle width="37" height="20" as="alternateBounds" />
          </mxGeometry>
        </mxCell>
        <mxCell id="0KGe4UdDs58mVBFfJjbx-23" value="price&amp;nbsp; &amp;nbsp; &amp;nbsp; &amp;nbsp; &amp;nbsp; &amp;nbsp; &amp;nbsp; &amp;nbsp; &amp;nbsp; &amp;nbsp; &amp;nbsp;NUMBER(6,2)" style="shape=partialRectangle;html=1;whiteSpace=wrap;connectable=0;fillColor=none;top=0;left=0;bottom=0;right=0;align=left;spacingLeft=6;overflow=hidden;strokeColor=inherit;fontSize=16;" vertex="1" parent="0KGe4UdDs58mVBFfJjbx-21">
          <mxGeometry x="37" width="293" height="20" as="geometry">
            <mxRectangle width="293" height="20" as="alternateBounds" />
          </mxGeometry>
        </mxCell>
        <mxCell id="0KGe4UdDs58mVBFfJjbx-24" value="" style="shape=tableRow;horizontal=0;startSize=0;swimlaneHead=0;swimlaneBody=0;top=0;left=0;bottom=0;right=0;collapsible=0;dropTarget=0;fillColor=none;points=[[0,0.5],[1,0.5]];portConstraint=eastwest;strokeColor=inherit;fontSize=16;" vertex="1" parent="0KGe4UdDs58mVBFfJjbx-7">
          <mxGeometry y="160" width="330" height="30" as="geometry" />
        </mxCell>
        <mxCell id="0KGe4UdDs58mVBFfJjbx-25" value="" style="shape=partialRectangle;html=1;whiteSpace=wrap;connectable=0;fillColor=none;top=0;left=0;bottom=0;right=0;overflow=hidden;strokeColor=inherit;fontSize=16;" vertex="1" parent="0KGe4UdDs58mVBFfJjbx-24">
          <mxGeometry width="37" height="30" as="geometry">
            <mxRectangle width="37" height="30" as="alternateBounds" />
          </mxGeometry>
        </mxCell>
        <mxCell id="0KGe4UdDs58mVBFfJjbx-26" value="creation_date&amp;nbsp; &amp;nbsp; &amp;nbsp; &amp;nbsp; TIMESTAMP" style="shape=partialRectangle;html=1;whiteSpace=wrap;connectable=0;fillColor=none;top=0;left=0;bottom=0;right=0;align=left;spacingLeft=6;overflow=hidden;strokeColor=inherit;fontSize=16;" vertex="1" parent="0KGe4UdDs58mVBFfJjbx-24">
          <mxGeometry x="37" width="293" height="30" as="geometry">
            <mxRectangle width="293" height="30" as="alternateBounds" />
          </mxGeometry>
        </mxCell>
        <mxCell id="0KGe4UdDs58mVBFfJjbx-27" value="" style="endArrow=none;html=1;rounded=0;strokeWidth=2;entryX=0.484;entryY=-0.014;entryDx=0;entryDy=0;entryPerimeter=0;exitX=0.484;exitY=1.129;exitDx=0;exitDy=0;exitPerimeter=0;" edge="1" parent="0KGe4UdDs58mVBFfJjbx-7" source="0KGe4UdDs58mVBFfJjbx-83" target="0KGe4UdDs58mVBFfJjbx-8">
          <mxGeometry width="50" height="50" relative="1" as="geometry">
            <mxPoint x="410.9000000000001" y="359.01" as="sourcePoint" />
            <mxPoint x="410" y="-20" as="targetPoint" />
          </mxGeometry>
        </mxCell>
        <mxCell id="0KGe4UdDs58mVBFfJjbx-80" value="" style="shape=tableRow;horizontal=0;startSize=0;swimlaneHead=0;swimlaneBody=0;top=0;left=0;bottom=0;right=0;collapsible=0;dropTarget=0;fillColor=none;points=[[0,0.5],[1,0.5]];portConstraint=eastwest;strokeColor=inherit;fontSize=16;" vertex="1" parent="0KGe4UdDs58mVBFfJjbx-7">
          <mxGeometry y="190" width="330" height="30" as="geometry" />
        </mxCell>
        <mxCell id="0KGe4UdDs58mVBFfJjbx-81" value="" style="shape=partialRectangle;html=1;whiteSpace=wrap;connectable=0;fillColor=none;top=0;left=0;bottom=0;right=0;overflow=hidden;strokeColor=inherit;fontSize=16;" vertex="1" parent="0KGe4UdDs58mVBFfJjbx-80">
          <mxGeometry width="37" height="30" as="geometry">
            <mxRectangle width="37" height="30" as="alternateBounds" />
          </mxGeometry>
        </mxCell>
        <mxCell id="0KGe4UdDs58mVBFfJjbx-82" value="update_date&amp;nbsp; &amp;nbsp; &amp;nbsp; &amp;nbsp; &amp;nbsp; TIMESTAMP" style="shape=partialRectangle;html=1;whiteSpace=wrap;connectable=0;fillColor=none;top=0;left=0;bottom=0;right=0;align=left;spacingLeft=6;overflow=hidden;strokeColor=inherit;fontSize=16;" vertex="1" parent="0KGe4UdDs58mVBFfJjbx-80">
          <mxGeometry x="37" width="293" height="30" as="geometry">
            <mxRectangle width="293" height="30" as="alternateBounds" />
          </mxGeometry>
        </mxCell>
        <mxCell id="0KGe4UdDs58mVBFfJjbx-83" value="" style="shape=tableRow;horizontal=0;startSize=0;swimlaneHead=0;swimlaneBody=0;top=0;left=0;bottom=0;right=0;collapsible=0;dropTarget=0;fillColor=none;points=[[0,0.5],[1,0.5]];portConstraint=eastwest;strokeColor=inherit;fontSize=16;" vertex="1" parent="0KGe4UdDs58mVBFfJjbx-7">
          <mxGeometry y="220" width="330" height="30" as="geometry" />
        </mxCell>
        <mxCell id="0KGe4UdDs58mVBFfJjbx-84" value="" style="shape=partialRectangle;html=1;whiteSpace=wrap;connectable=0;fillColor=none;top=0;left=0;bottom=0;right=0;overflow=hidden;strokeColor=inherit;fontSize=16;" vertex="1" parent="0KGe4UdDs58mVBFfJjbx-83">
          <mxGeometry width="37" height="30" as="geometry">
            <mxRectangle width="37" height="30" as="alternateBounds" />
          </mxGeometry>
        </mxCell>
        <mxCell id="0KGe4UdDs58mVBFfJjbx-85" value="order_status&amp;nbsp; &amp;nbsp; &amp;nbsp; &amp;nbsp; &amp;nbsp;VARCHAR2(50)" style="shape=partialRectangle;html=1;whiteSpace=wrap;connectable=0;fillColor=none;top=0;left=0;bottom=0;right=0;align=left;spacingLeft=6;overflow=hidden;strokeColor=inherit;fontSize=16;" vertex="1" parent="0KGe4UdDs58mVBFfJjbx-83">
          <mxGeometry x="37" width="293" height="30" as="geometry">
            <mxRectangle width="293" height="30" as="alternateBounds" />
          </mxGeometry>
        </mxCell>
        <mxCell id="0KGe4UdDs58mVBFfJjbx-28" value="ACCOUNTS" style="shape=table;startSize=30;container=1;collapsible=0;childLayout=tableLayout;fixedRows=1;rowLines=0;fontStyle=1;fontSize=16;fillColor=#00CC66;fontColor=#ffffff;strokeColor=#FFFFFF;" vertex="1" parent="1">
          <mxGeometry x="2440" y="760" width="330" height="320" as="geometry" />
        </mxCell>
        <mxCell id="0KGe4UdDs58mVBFfJjbx-29" value="" style="shape=tableRow;horizontal=0;startSize=0;swimlaneHead=0;swimlaneBody=0;top=0;left=0;bottom=0;right=0;collapsible=0;dropTarget=0;fillColor=none;points=[[0,0.5],[1,0.5]];portConstraint=eastwest;strokeColor=inherit;fontSize=16;strokeWidth=3;" vertex="1" parent="0KGe4UdDs58mVBFfJjbx-28">
          <mxGeometry y="30" width="330" height="30" as="geometry" />
        </mxCell>
        <mxCell id="0KGe4UdDs58mVBFfJjbx-30" value="PK" style="shape=partialRectangle;html=1;whiteSpace=wrap;connectable=0;fillColor=none;top=0;left=0;bottom=0;right=0;overflow=hidden;pointerEvents=1;strokeColor=#E6D0DE;fontSize=16;" vertex="1" parent="0KGe4UdDs58mVBFfJjbx-29">
          <mxGeometry width="37" height="30" as="geometry">
            <mxRectangle width="37" height="30" as="alternateBounds" />
          </mxGeometry>
        </mxCell>
        <mxCell id="0KGe4UdDs58mVBFfJjbx-31" value="account_id&amp;nbsp; &amp;nbsp; &amp;nbsp; &amp;nbsp; &amp;nbsp; NUMBER(22,0)" style="shape=partialRectangle;html=1;whiteSpace=wrap;connectable=0;fillColor=none;top=0;left=0;bottom=0;right=0;align=left;spacingLeft=6;overflow=hidden;strokeColor=#E6D0DE;fontSize=16;" vertex="1" parent="0KGe4UdDs58mVBFfJjbx-29">
          <mxGeometry x="37" width="293" height="30" as="geometry">
            <mxRectangle width="293" height="30" as="alternateBounds" />
          </mxGeometry>
        </mxCell>
        <mxCell id="0KGe4UdDs58mVBFfJjbx-32" value="" style="shape=tableRow;horizontal=0;startSize=0;swimlaneHead=0;swimlaneBody=0;top=0;left=0;bottom=0;right=0;collapsible=0;dropTarget=0;fillColor=none;points=[[0,0.5],[1,0.5]];portConstraint=eastwest;strokeColor=inherit;fontSize=16;" vertex="1" parent="0KGe4UdDs58mVBFfJjbx-28">
          <mxGeometry y="60" width="330" height="20" as="geometry" />
        </mxCell>
        <mxCell id="0KGe4UdDs58mVBFfJjbx-33" value="" style="shape=partialRectangle;html=1;whiteSpace=wrap;connectable=0;fillColor=none;top=0;left=0;bottom=0;right=0;overflow=hidden;strokeColor=inherit;fontSize=16;" vertex="1" parent="0KGe4UdDs58mVBFfJjbx-32">
          <mxGeometry width="37" height="20" as="geometry">
            <mxRectangle width="37" height="20" as="alternateBounds" />
          </mxGeometry>
        </mxCell>
        <mxCell id="0KGe4UdDs58mVBFfJjbx-34" value="first_name&amp;nbsp; &amp;nbsp; &amp;nbsp; &amp;nbsp; &amp;nbsp; &amp;nbsp; &amp;nbsp;VARCHAR2(150)" style="shape=partialRectangle;html=1;whiteSpace=wrap;connectable=0;fillColor=none;top=0;left=0;bottom=0;right=0;align=left;spacingLeft=6;overflow=hidden;strokeColor=inherit;fontSize=16;" vertex="1" parent="0KGe4UdDs58mVBFfJjbx-32">
          <mxGeometry x="37" width="293" height="20" as="geometry">
            <mxRectangle width="293" height="20" as="alternateBounds" />
          </mxGeometry>
        </mxCell>
        <mxCell id="0KGe4UdDs58mVBFfJjbx-35" value="" style="shape=tableRow;horizontal=0;startSize=0;swimlaneHead=0;swimlaneBody=0;top=0;left=0;bottom=0;right=0;collapsible=0;dropTarget=0;fillColor=none;points=[[0,0.5],[1,0.5]];portConstraint=eastwest;strokeColor=inherit;fontSize=16;" vertex="1" parent="0KGe4UdDs58mVBFfJjbx-28">
          <mxGeometry y="80" width="330" height="30" as="geometry" />
        </mxCell>
        <mxCell id="0KGe4UdDs58mVBFfJjbx-36" value="" style="shape=partialRectangle;html=1;whiteSpace=wrap;connectable=0;fillColor=none;top=0;left=0;bottom=0;right=0;overflow=hidden;strokeColor=inherit;fontSize=16;" vertex="1" parent="0KGe4UdDs58mVBFfJjbx-35">
          <mxGeometry width="37" height="30" as="geometry">
            <mxRectangle width="37" height="30" as="alternateBounds" />
          </mxGeometry>
        </mxCell>
        <mxCell id="0KGe4UdDs58mVBFfJjbx-37" value="last_name&amp;nbsp; &amp;nbsp; &amp;nbsp; &amp;nbsp; &amp;nbsp; &amp;nbsp; &amp;nbsp;VARCHAR2(150)" style="shape=partialRectangle;html=1;whiteSpace=wrap;connectable=0;fillColor=none;top=0;left=0;bottom=0;right=0;align=left;spacingLeft=6;overflow=hidden;strokeColor=inherit;fontSize=16;" vertex="1" parent="0KGe4UdDs58mVBFfJjbx-35">
          <mxGeometry x="37" width="293" height="30" as="geometry">
            <mxRectangle width="293" height="30" as="alternateBounds" />
          </mxGeometry>
        </mxCell>
        <mxCell id="0KGe4UdDs58mVBFfJjbx-38" value="" style="endArrow=none;html=1;rounded=0;strokeWidth=2;entryX=-0.002;entryY=-0.094;entryDx=0;entryDy=0;entryPerimeter=0;exitX=1.004;exitY=0.929;exitDx=0;exitDy=0;exitPerimeter=0;" edge="1" parent="0KGe4UdDs58mVBFfJjbx-28" source="0KGe4UdDs58mVBFfJjbx-29" target="0KGe4UdDs58mVBFfJjbx-32">
          <mxGeometry width="50" height="50" relative="1" as="geometry">
            <mxPoint x="130" y="240" as="sourcePoint" />
            <mxPoint y="89.57999999999998" as="targetPoint" />
          </mxGeometry>
        </mxCell>
        <mxCell id="0KGe4UdDs58mVBFfJjbx-39" value="" style="shape=tableRow;horizontal=0;startSize=0;swimlaneHead=0;swimlaneBody=0;top=0;left=0;bottom=0;right=0;collapsible=0;dropTarget=0;fillColor=none;points=[[0,0.5],[1,0.5]];portConstraint=eastwest;strokeColor=inherit;fontSize=16;" vertex="1" parent="0KGe4UdDs58mVBFfJjbx-28">
          <mxGeometry y="110" width="330" height="30" as="geometry" />
        </mxCell>
        <mxCell id="0KGe4UdDs58mVBFfJjbx-40" value="" style="shape=partialRectangle;html=1;whiteSpace=wrap;connectable=0;fillColor=none;top=0;left=0;bottom=0;right=0;overflow=hidden;strokeColor=inherit;fontSize=16;" vertex="1" parent="0KGe4UdDs58mVBFfJjbx-39">
          <mxGeometry width="37" height="30" as="geometry">
            <mxRectangle width="37" height="30" as="alternateBounds" />
          </mxGeometry>
        </mxCell>
        <mxCell id="0KGe4UdDs58mVBFfJjbx-41" value="login_name&amp;nbsp; &amp;nbsp; &amp;nbsp; &amp;nbsp; &amp;nbsp; &amp;nbsp;VARCHAR2(150)" style="shape=partialRectangle;html=1;whiteSpace=wrap;connectable=0;fillColor=none;top=0;left=0;bottom=0;right=0;align=left;spacingLeft=6;overflow=hidden;strokeColor=inherit;fontSize=16;" vertex="1" parent="0KGe4UdDs58mVBFfJjbx-39">
          <mxGeometry x="37" width="293" height="30" as="geometry">
            <mxRectangle width="293" height="30" as="alternateBounds" />
          </mxGeometry>
        </mxCell>
        <mxCell id="0KGe4UdDs58mVBFfJjbx-42" value="" style="shape=tableRow;horizontal=0;startSize=0;swimlaneHead=0;swimlaneBody=0;top=0;left=0;bottom=0;right=0;collapsible=0;dropTarget=0;fillColor=none;points=[[0,0.5],[1,0.5]];portConstraint=eastwest;strokeColor=inherit;fontSize=16;" vertex="1" parent="0KGe4UdDs58mVBFfJjbx-28">
          <mxGeometry y="140" width="330" height="30" as="geometry" />
        </mxCell>
        <mxCell id="0KGe4UdDs58mVBFfJjbx-43" value="" style="shape=partialRectangle;html=1;whiteSpace=wrap;connectable=0;fillColor=none;top=0;left=0;bottom=0;right=0;overflow=hidden;strokeColor=inherit;fontSize=16;" vertex="1" parent="0KGe4UdDs58mVBFfJjbx-42">
          <mxGeometry width="37" height="30" as="geometry">
            <mxRectangle width="37" height="30" as="alternateBounds" />
          </mxGeometry>
        </mxCell>
        <mxCell id="0KGe4UdDs58mVBFfJjbx-44" value="password&amp;nbsp; &amp;nbsp; &amp;nbsp; &amp;nbsp; &amp;nbsp; &amp;nbsp; &amp;nbsp; VARCHAR2(150)" style="shape=partialRectangle;html=1;whiteSpace=wrap;connectable=0;fillColor=none;top=0;left=0;bottom=0;right=0;align=left;spacingLeft=6;overflow=hidden;strokeColor=inherit;fontSize=16;" vertex="1" parent="0KGe4UdDs58mVBFfJjbx-42">
          <mxGeometry x="37" width="293" height="30" as="geometry">
            <mxRectangle width="293" height="30" as="alternateBounds" />
          </mxGeometry>
        </mxCell>
        <mxCell id="0KGe4UdDs58mVBFfJjbx-45" value="" style="shape=tableRow;horizontal=0;startSize=0;swimlaneHead=0;swimlaneBody=0;top=0;left=0;bottom=0;right=0;collapsible=0;dropTarget=0;fillColor=none;points=[[0,0.5],[1,0.5]];portConstraint=eastwest;strokeColor=inherit;fontSize=16;" vertex="1" parent="0KGe4UdDs58mVBFfJjbx-28">
          <mxGeometry y="170" width="330" height="30" as="geometry" />
        </mxCell>
        <mxCell id="0KGe4UdDs58mVBFfJjbx-46" value="" style="shape=partialRectangle;html=1;whiteSpace=wrap;connectable=0;fillColor=none;top=0;left=0;bottom=0;right=0;overflow=hidden;strokeColor=inherit;fontSize=16;" vertex="1" parent="0KGe4UdDs58mVBFfJjbx-45">
          <mxGeometry width="37" height="30" as="geometry">
            <mxRectangle width="37" height="30" as="alternateBounds" />
          </mxGeometry>
        </mxCell>
        <mxCell id="0KGe4UdDs58mVBFfJjbx-47" value="email&amp;nbsp; &amp;nbsp; &amp;nbsp; &amp;nbsp; &amp;nbsp; &amp;nbsp; &amp;nbsp; &amp;nbsp; &amp;nbsp; &amp;nbsp; &amp;nbsp;VARCHAR2(100)" style="shape=partialRectangle;html=1;whiteSpace=wrap;connectable=0;fillColor=none;top=0;left=0;bottom=0;right=0;align=left;spacingLeft=6;overflow=hidden;strokeColor=inherit;fontSize=16;" vertex="1" parent="0KGe4UdDs58mVBFfJjbx-45">
          <mxGeometry x="37" width="293" height="30" as="geometry">
            <mxRectangle width="293" height="30" as="alternateBounds" />
          </mxGeometry>
        </mxCell>
        <mxCell id="0KGe4UdDs58mVBFfJjbx-48" value="" style="endArrow=none;html=1;rounded=0;strokeWidth=2;entryX=0.484;entryY=-0.014;entryDx=0;entryDy=0;entryPerimeter=0;exitX=0.48;exitY=1.081;exitDx=0;exitDy=0;exitPerimeter=0;" edge="1" parent="0KGe4UdDs58mVBFfJjbx-28" source="0KGe4UdDs58mVBFfJjbx-58" target="0KGe4UdDs58mVBFfJjbx-29">
          <mxGeometry width="50" height="50" relative="1" as="geometry">
            <mxPoint x="410.9000000000001" y="359.01" as="sourcePoint" />
            <mxPoint x="410" y="-20" as="targetPoint" />
          </mxGeometry>
        </mxCell>
        <mxCell id="0KGe4UdDs58mVBFfJjbx-49" value="" style="shape=tableRow;horizontal=0;startSize=0;swimlaneHead=0;swimlaneBody=0;top=0;left=0;bottom=0;right=0;collapsible=0;dropTarget=0;fillColor=none;points=[[0,0.5],[1,0.5]];portConstraint=eastwest;strokeColor=inherit;fontSize=16;" vertex="1" parent="0KGe4UdDs58mVBFfJjbx-28">
          <mxGeometry y="200" width="330" height="30" as="geometry" />
        </mxCell>
        <mxCell id="0KGe4UdDs58mVBFfJjbx-50" value="" style="shape=partialRectangle;html=1;whiteSpace=wrap;connectable=0;fillColor=none;top=0;left=0;bottom=0;right=0;overflow=hidden;strokeColor=inherit;fontSize=16;" vertex="1" parent="0KGe4UdDs58mVBFfJjbx-49">
          <mxGeometry width="37" height="30" as="geometry">
            <mxRectangle width="37" height="30" as="alternateBounds" />
          </mxGeometry>
        </mxCell>
        <mxCell id="0KGe4UdDs58mVBFfJjbx-51" value="account_status&amp;nbsp; &amp;nbsp; &amp;nbsp;VARCHAR2(50)" style="shape=partialRectangle;html=1;whiteSpace=wrap;connectable=0;fillColor=none;top=0;left=0;bottom=0;right=0;align=left;spacingLeft=6;overflow=hidden;strokeColor=inherit;fontSize=16;" vertex="1" parent="0KGe4UdDs58mVBFfJjbx-49">
          <mxGeometry x="37" width="293" height="30" as="geometry">
            <mxRectangle width="293" height="30" as="alternateBounds" />
          </mxGeometry>
        </mxCell>
        <mxCell id="0KGe4UdDs58mVBFfJjbx-52" value="" style="shape=tableRow;horizontal=0;startSize=0;swimlaneHead=0;swimlaneBody=0;top=0;left=0;bottom=0;right=0;collapsible=0;dropTarget=0;fillColor=none;points=[[0,0.5],[1,0.5]];portConstraint=eastwest;strokeColor=inherit;fontSize=16;" vertex="1" parent="0KGe4UdDs58mVBFfJjbx-28">
          <mxGeometry y="230" width="330" height="30" as="geometry" />
        </mxCell>
        <mxCell id="0KGe4UdDs58mVBFfJjbx-53" value="" style="shape=partialRectangle;html=1;whiteSpace=wrap;connectable=0;fillColor=none;top=0;left=0;bottom=0;right=0;overflow=hidden;strokeColor=inherit;fontSize=16;" vertex="1" parent="0KGe4UdDs58mVBFfJjbx-52">
          <mxGeometry width="37" height="30" as="geometry">
            <mxRectangle width="37" height="30" as="alternateBounds" />
          </mxGeometry>
        </mxCell>
        <mxCell id="0KGe4UdDs58mVBFfJjbx-54" value="creation_date&amp;nbsp; &amp;nbsp; &amp;nbsp; &amp;nbsp; TIMESTAMP" style="shape=partialRectangle;html=1;whiteSpace=wrap;connectable=0;fillColor=none;top=0;left=0;bottom=0;right=0;align=left;spacingLeft=6;overflow=hidden;strokeColor=inherit;fontSize=16;" vertex="1" parent="0KGe4UdDs58mVBFfJjbx-52">
          <mxGeometry x="37" width="293" height="30" as="geometry">
            <mxRectangle width="293" height="30" as="alternateBounds" />
          </mxGeometry>
        </mxCell>
        <mxCell id="0KGe4UdDs58mVBFfJjbx-55" value="" style="shape=tableRow;horizontal=0;startSize=0;swimlaneHead=0;swimlaneBody=0;top=0;left=0;bottom=0;right=0;collapsible=0;dropTarget=0;fillColor=none;points=[[0,0.5],[1,0.5]];portConstraint=eastwest;strokeColor=inherit;fontSize=16;" vertex="1" parent="0KGe4UdDs58mVBFfJjbx-28">
          <mxGeometry y="260" width="330" height="30" as="geometry" />
        </mxCell>
        <mxCell id="0KGe4UdDs58mVBFfJjbx-56" value="" style="shape=partialRectangle;html=1;whiteSpace=wrap;connectable=0;fillColor=none;top=0;left=0;bottom=0;right=0;overflow=hidden;strokeColor=inherit;fontSize=16;" vertex="1" parent="0KGe4UdDs58mVBFfJjbx-55">
          <mxGeometry width="37" height="30" as="geometry">
            <mxRectangle width="37" height="30" as="alternateBounds" />
          </mxGeometry>
        </mxCell>
        <mxCell id="0KGe4UdDs58mVBFfJjbx-57" value="update_date&amp;nbsp; &amp;nbsp; &amp;nbsp; &amp;nbsp; &amp;nbsp; TIMESTAMP" style="shape=partialRectangle;html=1;whiteSpace=wrap;connectable=0;fillColor=none;top=0;left=0;bottom=0;right=0;align=left;spacingLeft=6;overflow=hidden;strokeColor=inherit;fontSize=16;" vertex="1" parent="0KGe4UdDs58mVBFfJjbx-55">
          <mxGeometry x="37" width="293" height="30" as="geometry">
            <mxRectangle width="293" height="30" as="alternateBounds" />
          </mxGeometry>
        </mxCell>
        <mxCell id="0KGe4UdDs58mVBFfJjbx-58" value="" style="shape=tableRow;horizontal=0;startSize=0;swimlaneHead=0;swimlaneBody=0;top=0;left=0;bottom=0;right=0;collapsible=0;dropTarget=0;fillColor=none;points=[[0,0.5],[1,0.5]];portConstraint=eastwest;strokeColor=inherit;fontSize=16;" vertex="1" parent="0KGe4UdDs58mVBFfJjbx-28">
          <mxGeometry y="290" width="330" height="30" as="geometry" />
        </mxCell>
        <mxCell id="0KGe4UdDs58mVBFfJjbx-59" value="FK" style="shape=partialRectangle;html=1;whiteSpace=wrap;connectable=0;fillColor=none;top=0;left=0;bottom=0;right=0;overflow=hidden;strokeColor=inherit;fontSize=16;" vertex="1" parent="0KGe4UdDs58mVBFfJjbx-58">
          <mxGeometry width="37" height="30" as="geometry">
            <mxRectangle width="37" height="30" as="alternateBounds" />
          </mxGeometry>
        </mxCell>
        <mxCell id="0KGe4UdDs58mVBFfJjbx-60" value="location_id&amp;nbsp; &amp;nbsp; &amp;nbsp; &amp;nbsp; &amp;nbsp; &amp;nbsp; &amp;nbsp;NUMBER(22,0)" style="shape=partialRectangle;html=1;whiteSpace=wrap;connectable=0;fillColor=none;top=0;left=0;bottom=0;right=0;align=left;spacingLeft=6;overflow=hidden;strokeColor=inherit;fontSize=16;" vertex="1" parent="0KGe4UdDs58mVBFfJjbx-58">
          <mxGeometry x="37" width="293" height="30" as="geometry">
            <mxRectangle width="293" height="30" as="alternateBounds" />
          </mxGeometry>
        </mxCell>
        <mxCell id="0KGe4UdDs58mVBFfJjbx-61" value="" style="fontSize=12;html=1;endArrow=none;startArrow=ERmany;rounded=0;entryX=1;entryY=0.5;entryDx=0;entryDy=0;jumpStyle=none;strokeWidth=5;endSize=22;startSize=22;targetPerimeterSpacing=5;sourcePerimeterSpacing=5;endFill=0;startFill=0;elbow=vertical;exitX=-0.006;exitY=0;exitDx=0;exitDy=0;exitPerimeter=0;" edge="1" parent="1" source="0KGe4UdDs58mVBFfJjbx-35" target="K2IEWOI--zp7ypRuiyLS-115">
          <mxGeometry width="100" height="100" relative="1" as="geometry">
            <mxPoint x="2458.69" y="874" as="sourcePoint" />
            <mxPoint x="2160" y="874.2800000000002" as="targetPoint" />
          </mxGeometry>
        </mxCell>
        <mxCell id="0KGe4UdDs58mVBFfJjbx-89" value="" style="fontSize=12;html=1;endArrow=none;startArrow=ERmany;rounded=0;entryX=1;entryY=0.5;entryDx=0;entryDy=0;jumpStyle=none;strokeWidth=5;endSize=22;startSize=22;targetPerimeterSpacing=5;sourcePerimeterSpacing=5;endFill=0;startFill=0;elbow=vertical;exitX=0;exitY=0.5;exitDx=0;exitDy=0;edgeStyle=orthogonalEdgeStyle;curved=1;" edge="1" parent="1" source="0KGe4UdDs58mVBFfJjbx-14" target="K2IEWOI--zp7ypRuiyLS-155">
          <mxGeometry width="100" height="100" relative="1" as="geometry">
            <mxPoint x="2539" y="1258" as="sourcePoint" />
            <mxPoint x="2240" y="1258" as="targetPoint" />
          </mxGeometry>
        </mxCell>
        <mxCell id="0KGe4UdDs58mVBFfJjbx-91" value="" style="fontSize=12;html=1;endArrow=ERmany;startArrow=ERmany;rounded=0;entryX=1;entryY=0.5;entryDx=0;entryDy=0;jumpStyle=none;strokeWidth=5;endSize=22;startSize=22;targetPerimeterSpacing=5;sourcePerimeterSpacing=5;endFill=0;startFill=0;elbow=vertical;exitX=-0.006;exitY=0.067;exitDx=0;exitDy=0;exitPerimeter=0;" edge="1" parent="1" source="0KGe4UdDs58mVBFfJjbx-80">
          <mxGeometry width="100" height="100" relative="1" as="geometry">
            <mxPoint x="1859" y="1550" as="sourcePoint" />
            <mxPoint x="1560" y="1550" as="targetPoint" />
          </mxGeometry>
        </mxCell>
        <mxCell id="0KGe4UdDs58mVBFfJjbx-92" value="" style="fontSize=12;html=1;endArrow=none;startArrow=ERmany;rounded=0;entryX=0.432;entryY=1.081;entryDx=0;entryDy=0;jumpStyle=none;strokeWidth=5;endSize=22;startSize=22;targetPerimeterSpacing=5;sourcePerimeterSpacing=5;endFill=0;startFill=0;elbow=vertical;exitX=0.5;exitY=0;exitDx=0;exitDy=0;entryPerimeter=0;" edge="1" parent="1" source="0KGe4UdDs58mVBFfJjbx-7" target="0KGe4UdDs58mVBFfJjbx-58">
          <mxGeometry width="100" height="100" relative="1" as="geometry">
            <mxPoint x="2719" y="1200" as="sourcePoint" />
            <mxPoint x="2420" y="1200" as="targetPoint" />
          </mxGeometry>
        </mxCell>
      </root>
    </mxGraphModel>
  </diagram>
</mxfile>
